# rock_b_L3.obj — niveau L3 de rock_b.obj : sphere 4x2, meme surface, meme graine
# main droite, Y up, avant = -Z
mtllib rock_b.mtl

v 0.000000 1.046700 0.000000
v 0.000000 1.046700 0.000000
v -0.000000 1.046700 0.000000
v -0.000000 1.046700 -0.000000
v 0.000000 1.046700 -0.000000
v 1.114833 0.000000 0.000000
v 0.000000 0.000000 1.101700
v -1.056038 0.000000 0.000000
v -0.000000 0.000000 -0.950831
v 1.114833 0.000000 -0.000000
v 0.000000 -0.898496 0.000000
v 0.000000 -0.898496 0.000000
v -0.000000 -0.898496 0.000000
v -0.000000 -0.898496 -0.000000
v 0.000000 -0.898496 -0.000000
vt 0.000000 1.000000
vt 0.250000 1.000000
vt 0.500000 1.000000
vt 0.750000 1.000000
vt 1.000000 1.000000
vt 0.000000 0.500000
vt 0.250000 0.500000
vt 0.500000 0.500000
vt 0.750000 0.500000
vt 1.000000 0.500000
vt 0.000000 0.000000
vt 0.250000 0.000000
vt 0.500000 0.000000
vt 0.750000 0.000000
vt 1.000000 0.000000
vn 0.000000 1.000000 0.000000
vn 0.000000 1.000000 0.000000
vn -0.000000 1.000000 0.000000
vn -0.000000 1.000000 -0.000000
vn 0.000000 1.000000 -0.000000
vn 1.000000 0.000000 0.000000
vn 0.000000 0.000000 1.000000
vn -1.000000 0.000000 0.000000
vn -0.000000 0.000000 -1.000000
vn 1.000000 0.000000 -0.000000
vn 0.000000 -1.000000 0.000000
vn 0.000000 -1.000000 0.000000
vn -0.000000 -1.000000 0.000000
vn -0.000000 -1.000000 -0.000000
vn 0.000000 -1.000000 -0.000000

usemtl M_Rock_B
f 1/1/1 7/7/7 6/6/6
f 2/2/2 8/8/8 7/7/7
f 3/3/3 9/9/9 8/8/8
f 4/4/4 10/10/10 9/9/9
f 6/6/6 7/7/7 12/12/12
f 7/7/7 8/8/8 13/13/13
f 8/8/8 9/9/9 14/14/14
f 9/9/9 10/10/10 15/15/15
