# rock_a_L3.obj — niveau L3 de rock_a.obj : sphere 4x2, meme surface, meme graine
# main droite, Y up, avant = -Z
mtllib planet.mtl

v 0.000000 0.943098 0.000000
v 0.000000 0.943098 0.000000
v -0.000000 0.943098 0.000000
v -0.000000 0.943098 -0.000000
v 0.000000 0.943098 -0.000000
v 0.964414 0.000000 0.000000
v 0.000000 0.000000 1.047982
v -1.050897 0.000000 0.000000
v -0.000000 0.000000 -0.970249
v 0.964414 0.000000 -0.000000
v 0.000000 -1.059656 0.000000
v 0.000000 -1.059656 0.000000
v -0.000000 -1.059656 0.000000
v -0.000000 -1.059656 -0.000000
v 0.000000 -1.059656 -0.000000
vt 0.000000 1.000000
vt 0.250000 1.000000
vt 0.500000 1.000000
vt 0.750000 1.000000
vt 1.000000 1.000000
vt 0.000000 0.500000
vt 0.250000 0.500000
vt 0.500000 0.500000
vt 0.750000 0.500000
vt 1.000000 0.500000
vt 0.000000 0.000000
vt 0.250000 0.000000
vt 0.500000 0.000000
vt 0.750000 0.000000
vt 1.000000 0.000000
vn 0.000000 1.000000 0.000000
vn 0.000000 1.000000 0.000000
vn -0.000000 1.000000 0.000000
vn -0.000000 1.000000 -0.000000
vn 0.000000 1.000000 -0.000000
vn 1.000000 0.000000 0.000000
vn 0.000000 0.000000 1.000000
vn -1.000000 0.000000 0.000000
vn -0.000000 0.000000 -1.000000
vn 1.000000 0.000000 -0.000000
vn 0.000000 -1.000000 0.000000
vn 0.000000 -1.000000 0.000000
vn -0.000000 -1.000000 0.000000
vn -0.000000 -1.000000 -0.000000
vn 0.000000 -1.000000 -0.000000

usemtl M_Rock
f 1/1/1 7/7/7 6/6/6
f 2/2/2 8/8/8 7/7/7
f 3/3/3 9/9/9 8/8/8
f 4/4/4 10/10/10 9/9/9
f 6/6/6 7/7/7 12/12/12
f 7/7/7 8/8/8 13/13/13
f 8/8/8 9/9/9 14/14/14
f 9/9/9 10/10/10 15/15/15
