# rock_a_L2.obj — niveau L2 de rock_a.obj : sphere 4x3, meme surface, meme graine
# main droite, Y up, avant = -Z
mtllib planet.mtl

v 0.000000 0.943098 0.000000
v 0.000000 0.943098 0.000000
v -0.000000 0.943098 0.000000
v -0.000000 0.943098 -0.000000
v 0.000000 0.943098 -0.000000
v 0.795919 0.459524 0.000000
v 0.000000 0.452556 0.783850
v -0.858241 0.495506 0.000000
v -0.000000 0.504072 -0.873078
v 0.795919 0.459524 -0.000000
v 0.935546 -0.540138 0.000000
v 0.000000 -0.496342 0.859689
v -0.899176 -0.519139 0.000000
v -0.000000 -0.517127 -0.895689
v 0.935546 -0.540138 -0.000000
v 0.000000 -1.059656 0.000000
v 0.000000 -1.059656 0.000000
v -0.000000 -1.059656 0.000000
v -0.000000 -1.059656 -0.000000
v 0.000000 -1.059656 -0.000000
vt 0.000000 1.000000
vt 0.250000 1.000000
vt 0.500000 1.000000
vt 0.750000 1.000000
vt 1.000000 1.000000
vt 0.000000 0.666667
vt 0.250000 0.666667
vt 0.500000 0.666667
vt 0.750000 0.666667
vt 1.000000 0.666667
vt 0.000000 0.333333
vt 0.250000 0.333333
vt 0.500000 0.333333
vt 0.750000 0.333333
vt 1.000000 0.333333
vt 0.000000 0.000000
vt 0.250000 0.000000
vt 0.500000 0.000000
vt 0.750000 0.000000
vt 1.000000 0.000000
vn 0.000000 1.000000 0.000000
vn 0.000000 1.000000 0.000000
vn -0.000000 1.000000 0.000000
vn -0.000000 1.000000 -0.000000
vn 0.000000 1.000000 -0.000000
vn 0.866025 0.500000 0.000000
vn 0.000000 0.500000 0.866025
vn -0.866025 0.500000 0.000000
vn -0.000000 0.500000 -0.866025
vn 0.866025 0.500000 -0.000000
vn 0.866025 -0.500000 0.000000
vn 0.000000 -0.500000 0.866025
vn -0.866025 -0.500000 0.000000
vn -0.000000 -0.500000 -0.866025
vn 0.866025 -0.500000 -0.000000
vn 0.000000 -1.000000 0.000000
vn 0.000000 -1.000000 0.000000
vn -0.000000 -1.000000 0.000000
vn -0.000000 -1.000000 -0.000000
vn 0.000000 -1.000000 -0.000000

usemtl M_Rock
f 1/1/1 7/7/7 6/6/6
f 2/2/2 8/8/8 7/7/7
f 3/3/3 9/9/9 8/8/8
f 4/4/4 10/10/10 9/9/9
f 6/6/6 12/12/12 11/11/11
f 6/6/6 7/7/7 12/12/12
f 7/7/7 13/13/13 12/12/12
f 7/7/7 8/8/8 13/13/13
f 8/8/8 14/14/14 13/13/13
f 8/8/8 9/9/9 14/14/14
f 9/9/9 15/15/15 14/14/14
f 9/9/9 10/10/10 15/15/15
f 11/11/11 12/12/12 17/17/17
f 12/12/12 13/13/13 18/18/18
f 13/13/13 14/14/14 19/19/19
f 14/14/14 15/15/15 20/20/20
