# rock_a.obj — asteroide procedural, rayon moyen 1.0
# main droite, Y up, avant = -Z
mtllib planet.mtl

v 0.000000 0.943098 0.000000
v 0.000000 0.943098 0.000000
v 0.000000 0.943098 0.000000
v 0.000000 0.943098 0.000000
v -0.000000 0.943098 0.000000
v -0.000000 0.943098 0.000000
v -0.000000 0.943098 0.000000
v -0.000000 0.943098 -0.000000
v -0.000000 0.943098 -0.000000
v -0.000000 0.943098 -0.000000
v 0.000000 0.943098 -0.000000
v 0.000000 0.943098 -0.000000
v 0.000000 0.943098 -0.000000
v 0.323323 0.780572 0.000000
v 0.263879 0.735614 0.152351
v 0.156412 0.755223 0.270913
v 0.000000 0.827685 0.342838
v -0.181691 0.877280 0.314698
v -0.357750 0.997296 0.206547
v -0.461558 1.114299 0.000000
v -0.342994 0.956163 -0.198028
v -0.197181 0.952075 -0.341528
v -0.000000 1.076622 -0.445951
v 0.196485 0.948715 -0.340323
v 0.332315 0.926391 -0.191862
v 0.323323 0.780572 -0.000000
v 0.603423 0.603423 0.000000
v 0.682598 0.788196 0.394098
v 0.389311 0.778621 0.674306
v 0.000000 0.615884 0.615884
v -0.375066 0.750132 0.649633
v -0.667149 0.770357 0.385179
v -0.631780 0.631780 0.000000
v -0.577597 0.666952 -0.333476
v -0.349903 0.699806 -0.606050
v -0.000000 0.666782 -0.666782
v 0.393510 0.787021 -0.681580
v 0.642707 0.742134 -0.371067
v 0.603423 0.603423 -0.000000
v 0.860198 0.356306 0.000000
v 0.810572 0.387691 0.467984
v 0.449605 0.372465 0.778739
v 0.000000 0.355337 0.857859
v -0.479126 0.396921 0.829870
v -0.698177 0.333933 0.403093
v -0.928170 0.384461 0.000000
v -0.947272 0.453073 -0.546908
v -0.509769 0.422307 -0.882947
v -0.000000 0.364425 -0.879800
v 0.479128 0.396923 -0.829875
v 0.834326 0.399052 -0.481698
v 0.860198 0.356306 -0.000000
v 0.964414 0.000000 0.000000
v 0.811291 0.000000 0.468399
v 0.492383 0.000000 0.852832
v 0.000000 0.000000 1.047982
v -0.407869 0.000000 0.706449
v -0.979799 0.000000 0.565687
v -1.050897 0.000000 0.000000
v -0.694284 0.000000 -0.400845
v -0.456439 0.000000 -0.790576
v -0.000000 0.000000 -0.970249
v 0.461500 0.000000 -0.799342
v 0.809763 0.000000 -0.467517
v 0.964414 0.000000 -0.000000
v 0.958299 -0.396941 0.000000
v 0.781849 -0.373953 0.451401
v 0.474677 -0.393236 0.822165
v 0.000000 -0.402592 0.971943
v -0.459466 -0.380634 0.795818
v -0.882007 -0.421857 0.509227
v -0.955044 -0.395592 0.000000
v -0.680989 -0.325712 -0.393169
v -0.433936 -0.359484 -0.751599
v -0.000000 -0.396926 -0.958265
v 0.450211 -0.372967 -0.779788
v 0.781786 -0.373923 -0.451365
v 0.958299 -0.396941 -0.000000
v 0.666705 -0.666705 0.000000
v 0.687820 -0.794227 0.397113
v 0.378979 -0.757958 0.656411
v 0.000000 -0.644079 0.644079
v -0.386876 -0.773751 0.670088
v -0.624138 -0.720693 0.360346
v -0.718817 -0.718817 0.000000
v -0.582578 -0.672703 -0.336352
v -0.363033 -0.726065 -0.628791
v -0.000000 -0.686183 -0.686183
v 0.352757 -0.705515 -0.610994
v 0.684485 -0.790375 -0.395187
v 0.666705 -0.666705 -0.000000
v 0.394293 -0.951908 0.000000
v 0.324503 -0.904615 0.187352
v 0.192810 -0.930967 0.333956
v 0.000000 -0.943111 0.390649
v -0.172018 -0.830578 0.297945
v -0.361323 -1.007259 0.208610
v -0.375230 -0.905886 0.000000
v -0.306985 -0.855779 -0.177238
v -0.173631 -0.838367 -0.300738
v -0.000000 -0.875307 -0.362564
v 0.203392 -0.982065 -0.352286
v 0.315720 -0.880131 -0.182281
v 0.394293 -0.951908 -0.000000
v 0.000000 -1.059656 0.000000
v 0.000000 -1.059656 0.000000
v 0.000000 -1.059656 0.000000
v 0.000000 -1.059656 0.000000
v -0.000000 -1.059656 0.000000
v -0.000000 -1.059656 0.000000
v -0.000000 -1.059656 0.000000
v -0.000000 -1.059656 -0.000000
v -0.000000 -1.059656 -0.000000
v -0.000000 -1.059656 -0.000000
v 0.000000 -1.059656 -0.000000
v 0.000000 -1.059656 -0.000000
v 0.000000 -1.059656 -0.000000
vt 0.000000 1.000000
vt 0.083333 1.000000
vt 0.166667 1.000000
vt 0.250000 1.000000
vt 0.333333 1.000000
vt 0.416667 1.000000
vt 0.500000 1.000000
vt 0.583333 1.000000
vt 0.666667 1.000000
vt 0.750000 1.000000
vt 0.833333 1.000000
vt 0.916667 1.000000
vt 1.000000 1.000000
vt 0.000000 0.875000
vt 0.083333 0.875000
vt 0.166667 0.875000
vt 0.250000 0.875000
vt 0.333333 0.875000
vt 0.416667 0.875000
vt 0.500000 0.875000
vt 0.583333 0.875000
vt 0.666667 0.875000
vt 0.750000 0.875000
vt 0.833333 0.875000
vt 0.916667 0.875000
vt 1.000000 0.875000
vt 0.000000 0.750000
vt 0.083333 0.750000
vt 0.166667 0.750000
vt 0.250000 0.750000
vt 0.333333 0.750000
vt 0.416667 0.750000
vt 0.500000 0.750000
vt 0.583333 0.750000
vt 0.666667 0.750000
vt 0.750000 0.750000
vt 0.833333 0.750000
vt 0.916667 0.750000
vt 1.000000 0.750000
vt 0.000000 0.625000
vt 0.083333 0.625000
vt 0.166667 0.625000
vt 0.250000 0.625000
vt 0.333333 0.625000
vt 0.416667 0.625000
vt 0.500000 0.625000
vt 0.583333 0.625000
vt 0.666667 0.625000
vt 0.750000 0.625000
vt 0.833333 0.625000
vt 0.916667 0.625000
vt 1.000000 0.625000
vt 0.000000 0.500000
vt 0.083333 0.500000
vt 0.166667 0.500000
vt 0.250000 0.500000
vt 0.333333 0.500000
vt 0.416667 0.500000
vt 0.500000 0.500000
vt 0.583333 0.500000
vt 0.666667 0.500000
vt 0.750000 0.500000
vt 0.833333 0.500000
vt 0.916667 0.500000
vt 1.000000 0.500000
vt 0.000000 0.375000
vt 0.083333 0.375000
vt 0.166667 0.375000
vt 0.250000 0.375000
vt 0.333333 0.375000
vt 0.416667 0.375000
vt 0.500000 0.375000
vt 0.583333 0.375000
vt 0.666667 0.375000
vt 0.750000 0.375000
vt 0.833333 0.375000
vt 0.916667 0.375000
vt 1.000000 0.375000
vt 0.000000 0.250000
vt 0.083333 0.250000
vt 0.166667 0.250000
vt 0.250000 0.250000
vt 0.333333 0.250000
vt 0.416667 0.250000
vt 0.500000 0.250000
vt 0.583333 0.250000
vt 0.666667 0.250000
vt 0.750000 0.250000
vt 0.833333 0.250000
vt 0.916667 0.250000
vt 1.000000 0.250000
vt 0.000000 0.125000
vt 0.083333 0.125000
vt 0.166667 0.125000
vt 0.250000 0.125000
vt 0.333333 0.125000
vt 0.416667 0.125000
vt 0.500000 0.125000
vt 0.583333 0.125000
vt 0.666667 0.125000
vt 0.750000 0.125000
vt 0.833333 0.125000
vt 0.916667 0.125000
vt 1.000000 0.125000
vt 0.000000 0.000000
vt 0.083333 0.000000
vt 0.166667 0.000000
vt 0.250000 0.000000
vt 0.333333 0.000000
vt 0.416667 0.000000
vt 0.500000 0.000000
vt 0.583333 0.000000
vt 0.666667 0.000000
vt 0.750000 0.000000
vt 0.833333 0.000000
vt 0.916667 0.000000
vt 1.000000 0.000000
vn 0.000000 1.000000 0.000000
vn 0.000000 1.000000 0.000000
vn 0.000000 1.000000 0.000000
vn 0.000000 1.000000 0.000000
vn -0.000000 1.000000 0.000000
vn -0.000000 1.000000 0.000000
vn -0.000000 1.000000 0.000000
vn -0.000000 1.000000 -0.000000
vn -0.000000 1.000000 -0.000000
vn -0.000000 1.000000 -0.000000
vn 0.000000 1.000000 -0.000000
vn 0.000000 1.000000 -0.000000
vn 0.000000 1.000000 -0.000000
vn 0.382683 0.923880 0.000000
vn 0.331414 0.923880 0.191342
vn 0.191342 0.923880 0.331414
vn 0.000000 0.923880 0.382683
vn -0.191342 0.923880 0.331414
vn -0.331414 0.923880 0.191342
vn -0.382683 0.923880 0.000000
vn -0.331414 0.923880 -0.191342
vn -0.191342 0.923880 -0.331414
vn -0.000000 0.923880 -0.382683
vn 0.191342 0.923880 -0.331414
vn 0.331414 0.923880 -0.191342
vn 0.382683 0.923880 -0.000000
vn 0.707107 0.707107 0.000000
vn 0.612372 0.707107 0.353553
vn 0.353553 0.707107 0.612372
vn 0.000000 0.707107 0.707107
vn -0.353553 0.707107 0.612372
vn -0.612372 0.707107 0.353553
vn -0.707107 0.707107 0.000000
vn -0.612372 0.707107 -0.353553
vn -0.353553 0.707107 -0.612372
vn -0.000000 0.707107 -0.707107
vn 0.353553 0.707107 -0.612372
vn 0.612372 0.707107 -0.353553
vn 0.707107 0.707107 -0.000000
vn 0.923880 0.382683 0.000000
vn 0.800103 0.382683 0.461940
vn 0.461940 0.382683 0.800103
vn 0.000000 0.382683 0.923880
vn -0.461940 0.382683 0.800103
vn -0.800103 0.382683 0.461940
vn -0.923880 0.382683 0.000000
vn -0.800103 0.382683 -0.461940
vn -0.461940 0.382683 -0.800103
vn -0.000000 0.382683 -0.923880
vn 0.461940 0.382683 -0.800103
vn 0.800103 0.382683 -0.461940
vn 0.923880 0.382683 -0.000000
vn 1.000000 0.000000 0.000000
vn 0.866025 0.000000 0.500000
vn 0.500000 0.000000 0.866025
vn 0.000000 0.000000 1.000000
vn -0.500000 0.000000 0.866025
vn -0.866025 0.000000 0.500000
vn -1.000000 0.000000 0.000000
vn -0.866025 0.000000 -0.500000
vn -0.500000 0.000000 -0.866025
vn -0.000000 0.000000 -1.000000
vn 0.500000 0.000000 -0.866025
vn 0.866025 0.000000 -0.500000
vn 1.000000 0.000000 -0.000000
vn 0.923880 -0.382683 0.000000
vn 0.800103 -0.382683 0.461940
vn 0.461940 -0.382683 0.800103
vn 0.000000 -0.382683 0.923880
vn -0.461940 -0.382683 0.800103
vn -0.800103 -0.382683 0.461940
vn -0.923880 -0.382683 0.000000
vn -0.800103 -0.382683 -0.461940
vn -0.461940 -0.382683 -0.800103
vn -0.000000 -0.382683 -0.923880
vn 0.461940 -0.382683 -0.800103
vn 0.800103 -0.382683 -0.461940
vn 0.923880 -0.382683 -0.000000
vn 0.707107 -0.707107 0.000000
vn 0.612372 -0.707107 0.353553
vn 0.353553 -0.707107 0.612372
vn 0.000000 -0.707107 0.707107
vn -0.353553 -0.707107 0.612372
vn -0.612372 -0.707107 0.353553
vn -0.707107 -0.707107 0.000000
vn -0.612372 -0.707107 -0.353553
vn -0.353553 -0.707107 -0.612372
vn -0.000000 -0.707107 -0.707107
vn 0.353553 -0.707107 -0.612372
vn 0.612372 -0.707107 -0.353553
vn 0.707107 -0.707107 -0.000000
vn 0.382683 -0.923880 0.000000
vn 0.331414 -0.923880 0.191342
vn 0.191342 -0.923880 0.331414
vn 0.000000 -0.923880 0.382683
vn -0.191342 -0.923880 0.331414
vn -0.331414 -0.923880 0.191342
vn -0.382683 -0.923880 0.000000
vn -0.331414 -0.923880 -0.191342
vn -0.191342 -0.923880 -0.331414
vn -0.000000 -0.923880 -0.382683
vn 0.191342 -0.923880 -0.331414
vn 0.331414 -0.923880 -0.191342
vn 0.382683 -0.923880 -0.000000
vn 0.000000 -1.000000 0.000000
vn 0.000000 -1.000000 0.000000
vn 0.000000 -1.000000 0.000000
vn 0.000000 -1.000000 0.000000
vn -0.000000 -1.000000 0.000000
vn -0.000000 -1.000000 0.000000
vn -0.000000 -1.000000 0.000000
vn -0.000000 -1.000000 -0.000000
vn -0.000000 -1.000000 -0.000000
vn -0.000000 -1.000000 -0.000000
vn 0.000000 -1.000000 -0.000000
vn 0.000000 -1.000000 -0.000000
vn 0.000000 -1.000000 -0.000000

usemtl M_Rock
f 1/1/1 15/15/15 14/14/14
f 2/2/2 16/16/16 15/15/15
f 3/3/3 17/17/17 16/16/16
f 4/4/4 18/18/18 17/17/17
f 5/5/5 19/19/19 18/18/18
f 6/6/6 20/20/20 19/19/19
f 7/7/7 21/21/21 20/20/20
f 8/8/8 22/22/22 21/21/21
f 9/9/9 23/23/23 22/22/22
f 10/10/10 24/24/24 23/23/23
f 11/11/11 25/25/25 24/24/24
f 12/12/12 26/26/26 25/25/25
f 14/14/14 28/28/28 27/27/27
f 14/14/14 15/15/15 28/28/28
f 15/15/15 29/29/29 28/28/28
f 15/15/15 16/16/16 29/29/29
f 16/16/16 30/30/30 29/29/29
f 16/16/16 17/17/17 30/30/30
f 17/17/17 31/31/31 30/30/30
f 17/17/17 18/18/18 31/31/31
f 18/18/18 32/32/32 31/31/31
f 18/18/18 19/19/19 32/32/32
f 19/19/19 33/33/33 32/32/32
f 19/19/19 20/20/20 33/33/33
f 20/20/20 34/34/34 33/33/33
f 20/20/20 21/21/21 34/34/34
f 21/21/21 35/35/35 34/34/34
f 21/21/21 22/22/22 35/35/35
f 22/22/22 36/36/36 35/35/35
f 22/22/22 23/23/23 36/36/36
f 23/23/23 37/37/37 36/36/36
f 23/23/23 24/24/24 37/37/37
f 24/24/24 38/38/38 37/37/37
f 24/24/24 25/25/25 38/38/38
f 25/25/25 39/39/39 38/38/38
f 25/25/25 26/26/26 39/39/39
f 27/27/27 41/41/41 40/40/40
f 27/27/27 28/28/28 41/41/41
f 28/28/28 42/42/42 41/41/41
f 28/28/28 29/29/29 42/42/42
f 29/29/29 43/43/43 42/42/42
f 29/29/29 30/30/30 43/43/43
f 30/30/30 44/44/44 43/43/43
f 30/30/30 31/31/31 44/44/44
f 31/31/31 45/45/45 44/44/44
f 31/31/31 32/32/32 45/45/45
f 32/32/32 46/46/46 45/45/45
f 32/32/32 33/33/33 46/46/46
f 33/33/33 47/47/47 46/46/46
f 33/33/33 34/34/34 47/47/47
f 34/34/34 48/48/48 47/47/47
f 34/34/34 35/35/35 48/48/48
f 35/35/35 49/49/49 48/48/48
f 35/35/35 36/36/36 49/49/49
f 36/36/36 50/50/50 49/49/49
f 36/36/36 37/37/37 50/50/50
f 37/37/37 51/51/51 50/50/50
f 37/37/37 38/38/38 51/51/51
f 38/38/38 52/52/52 51/51/51
f 38/38/38 39/39/39 52/52/52
f 40/40/40 54/54/54 53/53/53
f 40/40/40 41/41/41 54/54/54
f 41/41/41 55/55/55 54/54/54
f 41/41/41 42/42/42 55/55/55
f 42/42/42 56/56/56 55/55/55
f 42/42/42 43/43/43 56/56/56
f 43/43/43 57/57/57 56/56/56
f 43/43/43 44/44/44 57/57/57
f 44/44/44 58/58/58 57/57/57
f 44/44/44 45/45/45 58/58/58
f 45/45/45 59/59/59 58/58/58
f 45/45/45 46/46/46 59/59/59
f 46/46/46 60/60/60 59/59/59
f 46/46/46 47/47/47 60/60/60
f 47/47/47 61/61/61 60/60/60
f 47/47/47 48/48/48 61/61/61
f 48/48/48 62/62/62 61/61/61
f 48/48/48 49/49/49 62/62/62
f 49/49/49 63/63/63 62/62/62
f 49/49/49 50/50/50 63/63/63
f 50/50/50 64/64/64 63/63/63
f 50/50/50 51/51/51 64/64/64
f 51/51/51 65/65/65 64/64/64
f 51/51/51 52/52/52 65/65/65
f 53/53/53 67/67/67 66/66/66
f 53/53/53 54/54/54 67/67/67
f 54/54/54 68/68/68 67/67/67
f 54/54/54 55/55/55 68/68/68
f 55/55/55 69/69/69 68/68/68
f 55/55/55 56/56/56 69/69/69
f 56/56/56 70/70/70 69/69/69
f 56/56/56 57/57/57 70/70/70
f 57/57/57 71/71/71 70/70/70
f 57/57/57 58/58/58 71/71/71
f 58/58/58 72/72/72 71/71/71
f 58/58/58 59/59/59 72/72/72
f 59/59/59 73/73/73 72/72/72
f 59/59/59 60/60/60 73/73/73
f 60/60/60 74/74/74 73/73/73
f 60/60/60 61/61/61 74/74/74
f 61/61/61 75/75/75 74/74/74
f 61/61/61 62/62/62 75/75/75
f 62/62/62 76/76/76 75/75/75
f 62/62/62 63/63/63 76/76/76
f 63/63/63 77/77/77 76/76/76
f 63/63/63 64/64/64 77/77/77
f 64/64/64 78/78/78 77/77/77
f 64/64/64 65/65/65 78/78/78
f 66/66/66 80/80/80 79/79/79
f 66/66/66 67/67/67 80/80/80
f 67/67/67 81/81/81 80/80/80
f 67/67/67 68/68/68 81/81/81
f 68/68/68 82/82/82 81/81/81
f 68/68/68 69/69/69 82/82/82
f 69/69/69 83/83/83 82/82/82
f 69/69/69 70/70/70 83/83/83
f 70/70/70 84/84/84 83/83/83
f 70/70/70 71/71/71 84/84/84
f 71/71/71 85/85/85 84/84/84
f 71/71/71 72/72/72 85/85/85
f 72/72/72 86/86/86 85/85/85
f 72/72/72 73/73/73 86/86/86
f 73/73/73 87/87/87 86/86/86
f 73/73/73 74/74/74 87/87/87
f 74/74/74 88/88/88 87/87/87
f 74/74/74 75/75/75 88/88/88
f 75/75/75 89/89/89 88/88/88
f 75/75/75 76/76/76 89/89/89
f 76/76/76 90/90/90 89/89/89
f 76/76/76 77/77/77 90/90/90
f 77/77/77 91/91/91 90/90/90
f 77/77/77 78/78/78 91/91/91
f 79/79/79 93/93/93 92/92/92
f 79/79/79 80/80/80 93/93/93
f 80/80/80 94/94/94 93/93/93
f 80/80/80 81/81/81 94/94/94
f 81/81/81 95/95/95 94/94/94
f 81/81/81 82/82/82 95/95/95
f 82/82/82 96/96/96 95/95/95
f 82/82/82 83/83/83 96/96/96
f 83/83/83 97/97/97 96/96/96
f 83/83/83 84/84/84 97/97/97
f 84/84/84 98/98/98 97/97/97
f 84/84/84 85/85/85 98/98/98
f 85/85/85 99/99/99 98/98/98
f 85/85/85 86/86/86 99/99/99
f 86/86/86 100/100/100 99/99/99
f 86/86/86 87/87/87 100/100/100
f 87/87/87 101/101/101 100/100/100
f 87/87/87 88/88/88 101/101/101
f 88/88/88 102/102/102 101/101/101
f 88/88/88 89/89/89 102/102/102
f 89/89/89 103/103/103 102/102/102
f 89/89/89 90/90/90 103/103/103
f 90/90/90 104/104/104 103/103/103
f 90/90/90 91/91/91 104/104/104
f 92/92/92 93/93/93 106/106/106
f 93/93/93 94/94/94 107/107/107
f 94/94/94 95/95/95 108/108/108
f 95/95/95 96/96/96 109/109/109
f 96/96/96 97/97/97 110/110/110
f 97/97/97 98/98/98 111/111/111
f 98/98/98 99/99/99 112/112/112
f 99/99/99 100/100/100 113/113/113
f 100/100/100 101/101/101 114/114/114
f 101/101/101 102/102/102 115/115/115
f 102/102/102 103/103/103 116/116/116
f 103/103/103 104/104/104 117/117/117
