# rock_b_L2.obj — niveau L2 de rock_b.obj : sphere 4x3, meme surface, meme graine
# main droite, Y up, avant = -Z
mtllib rock_b.mtl

v 0.000000 1.046700 0.000000
v 0.000000 1.046700 0.000000
v -0.000000 1.046700 0.000000
v -0.000000 1.046700 -0.000000
v 0.000000 1.046700 -0.000000
v 0.758023 0.437645 0.000000
v 0.000000 0.494858 0.857120
v -0.836835 0.483147 0.000000
v -0.000000 0.554216 -0.959931
v 0.758023 0.437645 -0.000000
v 0.893915 -0.516102 0.000000
v 0.000000 -0.551668 0.955516
v -0.933863 -0.539166 0.000000
v -0.000000 -0.454096 -0.786517
v 0.893915 -0.516102 -0.000000
v 0.000000 -0.898496 0.000000
v 0.000000 -0.898496 0.000000
v -0.000000 -0.898496 0.000000
v -0.000000 -0.898496 -0.000000
v 0.000000 -0.898496 -0.000000
vt 0.000000 1.000000
vt 0.250000 1.000000
vt 0.500000 1.000000
vt 0.750000 1.000000
vt 1.000000 1.000000
vt 0.000000 0.666667
vt 0.250000 0.666667
vt 0.500000 0.666667
vt 0.750000 0.666667
vt 1.000000 0.666667
vt 0.000000 0.333333
vt 0.250000 0.333333
vt 0.500000 0.333333
vt 0.750000 0.333333
vt 1.000000 0.333333
vt 0.000000 0.000000
vt 0.250000 0.000000
vt 0.500000 0.000000
vt 0.750000 0.000000
vt 1.000000 0.000000
vn 0.000000 1.000000 0.000000
vn 0.000000 1.000000 0.000000
vn -0.000000 1.000000 0.000000
vn -0.000000 1.000000 -0.000000
vn 0.000000 1.000000 -0.000000
vn 0.866025 0.500000 0.000000
vn 0.000000 0.500000 0.866025
vn -0.866025 0.500000 0.000000
vn -0.000000 0.500000 -0.866025
vn 0.866025 0.500000 -0.000000
vn 0.866025 -0.500000 0.000000
vn 0.000000 -0.500000 0.866025
vn -0.866025 -0.500000 0.000000
vn -0.000000 -0.500000 -0.866025
vn 0.866025 -0.500000 -0.000000
vn 0.000000 -1.000000 0.000000
vn 0.000000 -1.000000 0.000000
vn -0.000000 -1.000000 0.000000
vn -0.000000 -1.000000 -0.000000
vn 0.000000 -1.000000 -0.000000

usemtl M_Rock_B
f 1/1/1 7/7/7 6/6/6
f 2/2/2 8/8/8 7/7/7
f 3/3/3 9/9/9 8/8/8
f 4/4/4 10/10/10 9/9/9
f 6/6/6 12/12/12 11/11/11
f 6/6/6 7/7/7 12/12/12
f 7/7/7 13/13/13 12/12/12
f 7/7/7 8/8/8 13/13/13
f 8/8/8 14/14/14 13/13/13
f 8/8/8 9/9/9 14/14/14
f 9/9/9 15/15/15 14/14/14
f 9/9/9 10/10/10 15/15/15
f 11/11/11 12/12/12 17/17/17
f 12/12/12 13/13/13 18/18/18
f 13/13/13 14/14/14 19/19/19
f 14/14/14 15/15/15 20/20/20
