# rock_a_L1.obj — niveau L1 de rock_a.obj : sphere 8x5, meme surface, meme graine
# main droite, Y up, avant = -Z
mtllib planet.mtl

v 0.000000 0.943098 0.000000
v 0.000000 0.943098 0.000000
v 0.000000 0.943098 0.000000
v -0.000000 0.943098 0.000000
v -0.000000 0.943098 0.000000
v -0.000000 0.943098 -0.000000
v -0.000000 0.943098 -0.000000
v 0.000000 0.943098 -0.000000
v 0.000000 0.943098 -0.000000
v 0.471174 0.648516 0.000000
v 0.447460 0.870981 0.447460
v 0.000000 0.695939 0.505629
v -0.413020 0.803942 0.413020
v -0.518194 0.713233 0.000000
v -0.377515 0.734832 -0.377515
v -0.000000 0.749880 -0.544820
v 0.399938 0.778478 -0.399938
v 0.471174 0.648516 -0.000000
v 0.890719 0.289412 0.000000
v 0.660499 0.303503 0.660499
v 0.000000 0.292798 0.901141
v -0.639781 0.293983 0.639781
v -0.970176 0.315229 0.000000
v -0.708546 0.325581 -0.708546
v -0.000000 0.286510 -0.881787
v 0.692178 0.318060 -0.692178
v 0.890719 0.289412 -0.000000
v 0.958550 -0.311452 0.000000
v 0.697561 -0.320533 0.697561
v 0.000000 -0.331183 1.019276
v -0.703676 -0.323343 0.703676
v -0.981560 -0.318928 0.000000
v -0.601193 -0.276252 -0.601193
v -0.000000 -0.318928 -0.981561
v 0.732669 -0.336666 -0.732669
v 0.958550 -0.311452 -0.000000
v 0.534600 -0.735813 0.000000
v 0.434052 -0.844880 0.434052
v 0.000000 -0.821548 0.596889
v -0.399848 -0.778303 0.399848
v -0.571072 -0.786013 0.000000
v -0.421581 -0.820607 -0.421581
v -0.000000 -0.738448 -0.536514
v 0.388576 -0.756362 -0.388576
v 0.534600 -0.735813 -0.000000
v 0.000000 -1.059656 0.000000
v 0.000000 -1.059656 0.000000
v 0.000000 -1.059656 0.000000
v -0.000000 -1.059656 0.000000
v -0.000000 -1.059656 0.000000
v -0.000000 -1.059656 -0.000000
v -0.000000 -1.059656 -0.000000
v 0.000000 -1.059656 -0.000000
v 0.000000 -1.059656 -0.000000
vt 0.000000 1.000000
vt 0.125000 1.000000
vt 0.250000 1.000000
vt 0.375000 1.000000
vt 0.500000 1.000000
vt 0.625000 1.000000
vt 0.750000 1.000000
vt 0.875000 1.000000
vt 1.000000 1.000000
vt 0.000000 0.800000
vt 0.125000 0.800000
vt 0.250000 0.800000
vt 0.375000 0.800000
vt 0.500000 0.800000
vt 0.625000 0.800000
vt 0.750000 0.800000
vt 0.875000 0.800000
vt 1.000000 0.800000
vt 0.000000 0.600000
vt 0.125000 0.600000
vt 0.250000 0.600000
vt 0.375000 0.600000
vt 0.500000 0.600000
vt 0.625000 0.600000
vt 0.750000 0.600000
vt 0.875000 0.600000
vt 1.000000 0.600000
vt 0.000000 0.400000
vt 0.125000 0.400000
vt 0.250000 0.400000
vt 0.375000 0.400000
vt 0.500000 0.400000
vt 0.625000 0.400000
vt 0.750000 0.400000
vt 0.875000 0.400000
vt 1.000000 0.400000
vt 0.000000 0.200000
vt 0.125000 0.200000
vt 0.250000 0.200000
vt 0.375000 0.200000
vt 0.500000 0.200000
vt 0.625000 0.200000
vt 0.750000 0.200000
vt 0.875000 0.200000
vt 1.000000 0.200000
vt 0.000000 0.000000
vt 0.125000 0.000000
vt 0.250000 0.000000
vt 0.375000 0.000000
vt 0.500000 0.000000
vt 0.625000 0.000000
vt 0.750000 0.000000
vt 0.875000 0.000000
vt 1.000000 0.000000
vn 0.000000 1.000000 0.000000
vn 0.000000 1.000000 0.000000
vn 0.000000 1.000000 0.000000
vn -0.000000 1.000000 0.000000
vn -0.000000 1.000000 0.000000
vn -0.000000 1.000000 -0.000000
vn -0.000000 1.000000 -0.000000
vn 0.000000 1.000000 -0.000000
vn 0.000000 1.000000 -0.000000
vn 0.587785 0.809017 0.000000
vn 0.415627 0.809017 0.415627
vn 0.000000 0.809017 0.587785
vn -0.415627 0.809017 0.415627
vn -0.587785 0.809017 0.000000
vn -0.415627 0.809017 -0.415627
vn -0.000000 0.809017 -0.587785
vn 0.415627 0.809017 -0.415627
vn 0.587785 0.809017 -0.000000
vn 0.951057 0.309017 0.000000
vn 0.672499 0.309017 0.672499
vn 0.000000 0.309017 0.951057
vn -0.672499 0.309017 0.672499
vn -0.951057 0.309017 0.000000
vn -0.672499 0.309017 -0.672499
vn -0.000000 0.309017 -0.951057
vn 0.672499 0.309017 -0.672499
vn 0.951057 0.309017 -0.000000
vn 0.951057 -0.309017 0.000000
vn 0.672499 -0.309017 0.672499
vn 0.000000 -0.309017 0.951057
vn -0.672499 -0.309017 0.672499
vn -0.951057 -0.309017 0.000000
vn -0.672499 -0.309017 -0.672499
vn -0.000000 -0.309017 -0.951057
vn 0.672499 -0.309017 -0.672499
vn 0.951057 -0.309017 -0.000000
vn 0.587785 -0.809017 0.000000
vn 0.415627 -0.809017 0.415627
vn 0.000000 -0.809017 0.587785
vn -0.415627 -0.809017 0.415627
vn -0.587785 -0.809017 0.000000
vn -0.415627 -0.809017 -0.415627
vn -0.000000 -0.809017 -0.587785
vn 0.415627 -0.809017 -0.415627
vn 0.587785 -0.809017 -0.000000
vn 0.000000 -1.000000 0.000000
vn 0.000000 -1.000000 0.000000
vn 0.000000 -1.000000 0.000000
vn -0.000000 -1.000000 0.000000
vn -0.000000 -1.000000 0.000000
vn -0.000000 -1.000000 -0.000000
vn -0.000000 -1.000000 -0.000000
vn 0.000000 -1.000000 -0.000000
vn 0.000000 -1.000000 -0.000000

usemtl M_Rock
f 1/1/1 11/11/11 10/10/10
f 2/2/2 12/12/12 11/11/11
f 3/3/3 13/13/13 12/12/12
f 4/4/4 14/14/14 13/13/13
f 5/5/5 15/15/15 14/14/14
f 6/6/6 16/16/16 15/15/15
f 7/7/7 17/17/17 16/16/16
f 8/8/8 18/18/18 17/17/17
f 10/10/10 20/20/20 19/19/19
f 10/10/10 11/11/11 20/20/20
f 11/11/11 21/21/21 20/20/20
f 11/11/11 12/12/12 21/21/21
f 12/12/12 22/22/22 21/21/21
f 12/12/12 13/13/13 22/22/22
f 13/13/13 23/23/23 22/22/22
f 13/13/13 14/14/14 23/23/23
f 14/14/14 24/24/24 23/23/23
f 14/14/14 15/15/15 24/24/24
f 15/15/15 25/25/25 24/24/24
f 15/15/15 16/16/16 25/25/25
f 16/16/16 26/26/26 25/25/25
f 16/16/16 17/17/17 26/26/26
f 17/17/17 27/27/27 26/26/26
f 17/17/17 18/18/18 27/27/27
f 19/19/19 29/29/29 28/28/28
f 19/19/19 20/20/20 29/29/29
f 20/20/20 30/30/30 29/29/29
f 20/20/20 21/21/21 30/30/30
f 21/21/21 31/31/31 30/30/30
f 21/21/21 22/22/22 31/31/31
f 22/22/22 32/32/32 31/31/31
f 22/22/22 23/23/23 32/32/32
f 23/23/23 33/33/33 32/32/32
f 23/23/23 24/24/24 33/33/33
f 24/24/24 34/34/34 33/33/33
f 24/24/24 25/25/25 34/34/34
f 25/25/25 35/35/35 34/34/34
f 25/25/25 26/26/26 35/35/35
f 26/26/26 36/36/36 35/35/35
f 26/26/26 27/27/27 36/36/36
f 28/28/28 38/38/38 37/37/37
f 28/28/28 29/29/29 38/38/38
f 29/29/29 39/39/39 38/38/38
f 29/29/29 30/30/30 39/39/39
f 30/30/30 40/40/40 39/39/39
f 30/30/30 31/31/31 40/40/40
f 31/31/31 41/41/41 40/40/40
f 31/31/31 32/32/32 41/41/41
f 32/32/32 42/42/42 41/41/41
f 32/32/32 33/33/33 42/42/42
f 33/33/33 43/43/43 42/42/42
f 33/33/33 34/34/34 43/43/43
f 34/34/34 44/44/44 43/43/43
f 34/34/34 35/35/35 44/44/44
f 35/35/35 45/45/45 44/44/44
f 35/35/35 36/36/36 45/45/45
f 37/37/37 38/38/38 47/47/47
f 38/38/38 39/39/39 48/48/48
f 39/39/39 40/40/40 49/49/49
f 40/40/40 41/41/41 50/50/50
f 41/41/41 42/42/42 51/51/51
f 42/42/42 43/43/43 52/52/52
f 43/43/43 44/44/44 53/53/53
f 44/44/44 45/45/45 54/54/54
