# ship_scout.obj — LibraryV3 / vaisseau du joueur
# main droite, Y up, AVANT = -Z. Emprise ~ 2.1 x 0.9 x 3.2 unites.
mtllib ship_scout.mtl

v 0.02000 0.00000 -1.80000
v 0.01618 0.01176 -1.80000
v 0.00618 0.01902 -1.80000
v -0.00618 0.01902 -1.80000
v -0.01618 0.01176 -1.80000
v -0.02000 0.00000 -1.80000
v -0.01618 -0.01176 -1.80000
v -0.00618 -0.01902 -1.80000
v 0.00618 -0.01902 -1.80000
v 0.01618 -0.01176 -1.80000
v 0.17000 0.00000 -1.20000
v 0.13753 0.09992 -1.20000
v 0.05253 0.16168 -1.20000
v -0.05253 0.16168 -1.20000
v -0.13753 0.09992 -1.20000
v -0.17000 0.00000 -1.20000
v -0.13753 -0.09992 -1.20000
v -0.05253 -0.16168 -1.20000
v 0.05253 -0.16168 -1.20000
v 0.13753 -0.09992 -1.20000
v 0.17000 0.00000 -1.20000
v 0.13753 0.09992 -1.20000
v 0.05253 0.16168 -1.20000
v -0.05253 0.16168 -1.20000
v -0.13753 0.09992 -1.20000
v -0.17000 0.00000 -1.20000
v -0.13753 -0.09992 -1.20000
v -0.05253 -0.16168 -1.20000
v 0.05253 -0.16168 -1.20000
v 0.13753 -0.09992 -1.20000
v 0.30000 0.00000 -0.55000
v 0.24271 0.17634 -0.55000
v 0.09271 0.28532 -0.55000
v -0.09271 0.28532 -0.55000
v -0.24271 0.17634 -0.55000
v -0.30000 0.00000 -0.55000
v -0.24271 -0.17634 -0.55000
v -0.09271 -0.28532 -0.55000
v 0.09271 -0.28532 -0.55000
v 0.24271 -0.17634 -0.55000
v 0.30000 0.00000 -0.55000
v 0.24271 0.17634 -0.55000
v 0.09271 0.28532 -0.55000
v -0.09271 0.28532 -0.55000
v -0.24271 0.17634 -0.55000
v -0.30000 0.00000 -0.55000
v -0.24271 -0.17634 -0.55000
v -0.09271 -0.28532 -0.55000
v 0.09271 -0.28532 -0.55000
v 0.24271 -0.17634 -0.55000
v 0.32000 0.00000 0.85000
v 0.25889 0.18809 0.85000
v 0.09889 0.30434 0.85000
v -0.09889 0.30434 0.85000
v -0.25889 0.18809 0.85000
v -0.32000 0.00000 0.85000
v -0.25889 -0.18809 0.85000
v -0.09889 -0.30434 0.85000
v 0.09889 -0.30434 0.85000
v 0.25889 -0.18809 0.85000
v 0.32000 0.00000 0.85000
v 0.25889 0.18809 0.85000
v 0.09889 0.30434 0.85000
v -0.09889 0.30434 0.85000
v -0.25889 0.18809 0.85000
v -0.32000 0.00000 0.85000
v -0.25889 -0.18809 0.85000
v -0.09889 -0.30434 0.85000
v 0.09889 -0.30434 0.85000
v 0.25889 -0.18809 0.85000
v 0.23000 0.00000 1.25000
v 0.18607 0.13519 1.25000
v 0.07107 0.21874 1.25000
v -0.07107 0.21874 1.25000
v -0.18607 0.13519 1.25000
v -0.23000 0.00000 1.25000
v -0.18607 -0.13519 1.25000
v -0.07107 -0.21874 1.25000
v 0.07107 -0.21874 1.25000
v 0.18607 -0.13519 1.25000
v 0.00000 0.00000 1.25000
v 0.23000 0.00000 1.25000
v 0.18607 0.13519 1.25000
v 0.07107 0.21874 1.25000
v -0.07107 0.21874 1.25000
v -0.18607 0.13519 1.25000
v -0.23000 0.00000 1.25000
v -0.18607 -0.13519 1.25000
v -0.07107 -0.21874 1.25000
v 0.07107 -0.21874 1.25000
v 0.18607 -0.13519 1.25000
v -0.28000 0.03750 -0.10000
v -1.05000 0.03750 0.55000
v -1.00000 0.03750 1.10000
v -0.28000 0.03750 0.95000
v -0.28000 -0.03750 -0.10000
v -1.05000 -0.03750 0.55000
v -1.00000 -0.03750 1.10000
v -0.28000 -0.03750 0.95000
v 0.28000 0.03750 -0.10000
v 0.28000 0.03750 0.95000
v 1.00000 0.03750 1.10000
v 1.05000 0.03750 0.55000
v 0.28000 -0.03750 -0.10000
v 0.28000 -0.03750 0.95000
v 1.00000 -0.03750 1.10000
v 1.05000 -0.03750 0.55000
v 0.04250 0.18000 0.30000
v 0.04250 0.62000 1.22000
v 0.04250 0.10000 1.22000
v 0.04250 0.05000 0.36000
v -0.04250 0.18000 0.30000
v -0.04250 0.62000 1.22000
v -0.04250 0.10000 1.22000
v -0.04250 0.05000 0.36000
v -0.47000 -0.02000 0.30000
v -0.49865 0.06817 0.30000
v -0.57365 0.12266 0.30000
v -0.66635 0.12266 0.30000
v -0.74135 0.06817 0.30000
v -0.77000 -0.02000 0.30000
v -0.74135 -0.10817 0.30000
v -0.66635 -0.16266 0.30000
v -0.57365 -0.16266 0.30000
v -0.49865 -0.10817 0.30000
v -0.45500 -0.02000 1.05000
v -0.48651 0.07698 1.05000
v -0.56901 0.13692 1.05000
v -0.67099 0.13692 1.05000
v -0.75349 0.07698 1.05000
v -0.78500 -0.02000 1.05000
v -0.75349 -0.11698 1.05000
v -0.67099 -0.17692 1.05000
v -0.56901 -0.17692 1.05000
v -0.48651 -0.11698 1.05000
v -0.62000 -0.02000 0.30000
v -0.47000 -0.02000 0.30000
v -0.49865 0.06817 0.30000
v -0.57365 0.12266 0.30000
v -0.66635 0.12266 0.30000
v -0.74135 0.06817 0.30000
v -0.77000 -0.02000 0.30000
v -0.74135 -0.10817 0.30000
v -0.66635 -0.16266 0.30000
v -0.57365 -0.16266 0.30000
v -0.49865 -0.10817 0.30000
v -0.45500 -0.02000 1.05000
v -0.48651 0.07698 1.05000
v -0.56901 0.13692 1.05000
v -0.67099 0.13692 1.05000
v -0.75349 0.07698 1.05000
v -0.78500 -0.02000 1.05000
v -0.75349 -0.11698 1.05000
v -0.67099 -0.17692 1.05000
v -0.56901 -0.17692 1.05000
v -0.48651 -0.11698 1.05000
v -0.49500 -0.02000 1.32000
v -0.51887 0.05347 1.32000
v -0.58137 0.09888 1.32000
v -0.65863 0.09888 1.32000
v -0.72113 0.05347 1.32000
v -0.74500 -0.02000 1.32000
v -0.72113 -0.09347 1.32000
v -0.65863 -0.13888 1.32000
v -0.58137 -0.13888 1.32000
v -0.51887 -0.09347 1.32000
v 0.77000 -0.02000 0.30000
v 0.74135 0.06817 0.30000
v 0.66635 0.12266 0.30000
v 0.57365 0.12266 0.30000
v 0.49865 0.06817 0.30000
v 0.47000 -0.02000 0.30000
v 0.49865 -0.10817 0.30000
v 0.57365 -0.16266 0.30000
v 0.66635 -0.16266 0.30000
v 0.74135 -0.10817 0.30000
v 0.78500 -0.02000 1.05000
v 0.75349 0.07698 1.05000
v 0.67099 0.13692 1.05000
v 0.56901 0.13692 1.05000
v 0.48651 0.07698 1.05000
v 0.45500 -0.02000 1.05000
v 0.48651 -0.11698 1.05000
v 0.56901 -0.17692 1.05000
v 0.67099 -0.17692 1.05000
v 0.75349 -0.11698 1.05000
v 0.62000 -0.02000 0.30000
v 0.77000 -0.02000 0.30000
v 0.74135 0.06817 0.30000
v 0.66635 0.12266 0.30000
v 0.57365 0.12266 0.30000
v 0.49865 0.06817 0.30000
v 0.47000 -0.02000 0.30000
v 0.49865 -0.10817 0.30000
v 0.57365 -0.16266 0.30000
v 0.66635 -0.16266 0.30000
v 0.74135 -0.10817 0.30000
v 0.78500 -0.02000 1.05000
v 0.75349 0.07698 1.05000
v 0.67099 0.13692 1.05000
v 0.56901 0.13692 1.05000
v 0.48651 0.07698 1.05000
v 0.45500 -0.02000 1.05000
v 0.48651 -0.11698 1.05000
v 0.56901 -0.17692 1.05000
v 0.67099 -0.17692 1.05000
v 0.75349 -0.11698 1.05000
v 0.74500 -0.02000 1.32000
v 0.72113 0.05347 1.32000
v 0.65863 0.09888 1.32000
v 0.58137 0.09888 1.32000
v 0.51887 0.05347 1.32000
v 0.49500 -0.02000 1.32000
v 0.51887 -0.09347 1.32000
v 0.58137 -0.13888 1.32000
v 0.65863 -0.13888 1.32000
v 0.72113 -0.09347 1.32000
v -0.62000 -0.02000 1.32500
v -0.50000 -0.02000 1.32500
v -0.52292 0.05053 1.32500
v -0.58292 0.09413 1.32500
v -0.65708 0.09413 1.32500
v -0.71708 0.05053 1.32500
v -0.74000 -0.02000 1.32500
v -0.71708 -0.09053 1.32500
v -0.65708 -0.13413 1.32500
v -0.58292 -0.13413 1.32500
v -0.52292 -0.09053 1.32500
v 0.62000 -0.02000 1.32500
v 0.74000 -0.02000 1.32500
v 0.71708 0.05053 1.32500
v 0.65708 0.09413 1.32500
v 0.58292 0.09413 1.32500
v 0.52292 0.05053 1.32500
v 0.50000 -0.02000 1.32500
v 0.52292 -0.09053 1.32500
v 0.58292 -0.13413 1.32500
v 0.65708 -0.13413 1.32500
v 0.71708 -0.09053 1.32500
v 0.09000 0.26000 -0.60000
v 0.07281 0.28939 -0.60000
v 0.02781 0.30755 -0.60000
v -0.02781 0.30755 -0.60000
v -0.07281 0.28939 -0.60000
v -0.09000 0.26000 -0.60000
v -0.07281 0.23061 -0.60000
v -0.02781 0.21245 -0.60000
v 0.02781 0.21245 -0.60000
v 0.07281 0.23061 -0.60000
v 0.19000 0.26000 -0.20000
v 0.15371 0.32466 -0.20000
v 0.05871 0.36462 -0.20000
v -0.05871 0.36462 -0.20000
v -0.15371 0.32466 -0.20000
v -0.19000 0.26000 -0.20000
v -0.15371 0.19534 -0.20000
v -0.05871 0.15538 -0.20000
v 0.05871 0.15538 -0.20000
v 0.15371 0.19534 -0.20000
v 0.19000 0.26000 -0.20000
v 0.15371 0.32466 -0.20000
v 0.05871 0.36462 -0.20000
v -0.05871 0.36462 -0.20000
v -0.15371 0.32466 -0.20000
v -0.19000 0.26000 -0.20000
v -0.15371 0.19534 -0.20000
v -0.05871 0.15538 -0.20000
v 0.05871 0.15538 -0.20000
v 0.15371 0.19534 -0.20000
v 0.12000 0.26000 0.15000
v 0.09708 0.30114 0.15000
v 0.03708 0.32657 0.15000
v -0.03708 0.32657 0.15000
v -0.09708 0.30114 0.15000
v -0.12000 0.26000 0.15000
v -0.09708 0.21886 0.15000
v -0.03708 0.19343 0.15000
v 0.03708 0.19343 0.15000
v 0.09708 0.21886 0.15000
v 0.00000 0.26000 0.15000
v 0.12000 0.26000 0.15000
v 0.09708 0.30114 0.15000
v 0.03708 0.32657 0.15000
v -0.03708 0.32657 0.15000
v -0.09708 0.30114 0.15000
v -0.12000 0.26000 0.15000
v -0.09708 0.21886 0.15000
v -0.03708 0.19343 0.15000
v 0.03708 0.19343 0.15000
v 0.09708 0.21886 0.15000
vt 0.00000 0.02000
vt 0.10000 0.02000
vt 0.20000 0.02000
vt 0.30000 0.02000
vt 0.40000 0.02000
vt 0.50000 0.02000
vt 0.60000 0.02000
vt 0.70000 0.02000
vt 0.80000 0.02000
vt 0.90000 0.02000
vt 1.00000 0.02000
vt 0.00000 0.10000
vt 0.10000 0.10000
vt 0.20000 0.10000
vt 0.30000 0.10000
vt 0.40000 0.10000
vt 0.50000 0.10000
vt 0.60000 0.10000
vt 0.70000 0.10000
vt 0.80000 0.10000
vt 0.90000 0.10000
vt 1.00000 0.10000
vt 0.00000 0.10000
vt 0.10000 0.10000
vt 0.20000 0.10000
vt 0.30000 0.10000
vt 0.40000 0.10000
vt 0.50000 0.10000
vt 0.60000 0.10000
vt 0.70000 0.10000
vt 0.80000 0.10000
vt 0.90000 0.10000
vt 1.00000 0.10000
vt 0.00000 0.18000
vt 0.10000 0.18000
vt 0.20000 0.18000
vt 0.30000 0.18000
vt 0.40000 0.18000
vt 0.50000 0.18000
vt 0.60000 0.18000
vt 0.70000 0.18000
vt 0.80000 0.18000
vt 0.90000 0.18000
vt 1.00000 0.18000
vt 0.00000 0.18000
vt 0.10000 0.18000
vt 0.20000 0.18000
vt 0.30000 0.18000
vt 0.40000 0.18000
vt 0.50000 0.18000
vt 0.60000 0.18000
vt 0.70000 0.18000
vt 0.80000 0.18000
vt 0.90000 0.18000
vt 1.00000 0.18000
vt 0.00000 0.28000
vt 0.10000 0.28000
vt 0.20000 0.28000
vt 0.30000 0.28000
vt 0.40000 0.28000
vt 0.50000 0.28000
vt 0.60000 0.28000
vt 0.70000 0.28000
vt 0.80000 0.28000
vt 0.90000 0.28000
vt 1.00000 0.28000
vt 0.00000 0.28000
vt 0.10000 0.28000
vt 0.20000 0.28000
vt 0.30000 0.28000
vt 0.40000 0.28000
vt 0.50000 0.28000
vt 0.60000 0.28000
vt 0.70000 0.28000
vt 0.80000 0.28000
vt 0.90000 0.28000
vt 1.00000 0.28000
vt 0.00000 0.33000
vt 0.10000 0.33000
vt 0.20000 0.33000
vt 0.30000 0.33000
vt 0.40000 0.33000
vt 0.50000 0.33000
vt 0.60000 0.33000
vt 0.70000 0.33000
vt 0.80000 0.33000
vt 0.90000 0.33000
vt 1.00000 0.33000
vt 0.50000 0.30500
vt 0.52200 0.30500
vt 0.51780 0.31793
vt 0.50680 0.32592
vt 0.49320 0.32592
vt 0.48220 0.31793
vt 0.47800 0.30500
vt 0.48220 0.29207
vt 0.49320 0.28408
vt 0.50680 0.28408
vt 0.51780 0.29207
vt 0.58000 0.36000
vt 0.24000 0.47375
vt 0.26208 0.57000
vt 0.58000 0.54375
vt 0.58000 0.36000
vt 0.24000 0.47375
vt 0.26208 0.57000
vt 0.58000 0.54375
vt 0.62000 0.36000
vt 0.62000 0.54375
vt 0.93792 0.57000
vt 0.96000 0.47375
vt 0.62000 0.36000
vt 0.62000 0.54375
vt 0.93792 0.57000
vt 0.96000 0.47375
vt 0.02000 0.40789
vt 0.20000 0.57000
vt 0.20000 0.37842
vt 0.03174 0.36000
vt 0.02000 0.40789
vt 0.20000 0.57000
vt 0.20000 0.37842
vt 0.03174 0.36000
vt 0.00000 0.62000
vt 0.10000 0.62000
vt 0.20000 0.62000
vt 0.30000 0.62000
vt 0.40000 0.62000
vt 0.50000 0.62000
vt 0.60000 0.62000
vt 0.70000 0.62000
vt 0.80000 0.62000
vt 0.90000 0.62000
vt 1.00000 0.62000
vt 0.00000 0.72000
vt 0.10000 0.72000
vt 0.20000 0.72000
vt 0.30000 0.72000
vt 0.40000 0.72000
vt 0.50000 0.72000
vt 0.60000 0.72000
vt 0.70000 0.72000
vt 0.80000 0.72000
vt 0.90000 0.72000
vt 1.00000 0.72000
vt 0.50000 0.67000
vt 0.52200 0.67000
vt 0.51780 0.68293
vt 0.50680 0.69092
vt 0.49320 0.69092
vt 0.48220 0.68293
vt 0.47800 0.67000
vt 0.48220 0.65707
vt 0.49320 0.64908
vt 0.50680 0.64908
vt 0.51780 0.65707
vt 0.00000 0.72000
vt 0.10000 0.72000
vt 0.20000 0.72000
vt 0.30000 0.72000
vt 0.40000 0.72000
vt 0.50000 0.72000
vt 0.60000 0.72000
vt 0.70000 0.72000
vt 0.80000 0.72000
vt 0.90000 0.72000
vt 1.00000 0.72000
vt 0.00000 0.78000
vt 0.10000 0.78000
vt 0.20000 0.78000
vt 0.30000 0.78000
vt 0.40000 0.78000
vt 0.50000 0.78000
vt 0.60000 0.78000
vt 0.70000 0.78000
vt 0.80000 0.78000
vt 0.90000 0.78000
vt 1.00000 0.78000
vt 0.00000 0.62000
vt 0.10000 0.62000
vt 0.20000 0.62000
vt 0.30000 0.62000
vt 0.40000 0.62000
vt 0.50000 0.62000
vt 0.60000 0.62000
vt 0.70000 0.62000
vt 0.80000 0.62000
vt 0.90000 0.62000
vt 1.00000 0.62000
vt 0.00000 0.72000
vt 0.10000 0.72000
vt 0.20000 0.72000
vt 0.30000 0.72000
vt 0.40000 0.72000
vt 0.50000 0.72000
vt 0.60000 0.72000
vt 0.70000 0.72000
vt 0.80000 0.72000
vt 0.90000 0.72000
vt 1.00000 0.72000
vt 0.50000 0.67000
vt 0.52200 0.67000
vt 0.51780 0.68293
vt 0.50680 0.69092
vt 0.49320 0.69092
vt 0.48220 0.68293
vt 0.47800 0.67000
vt 0.48220 0.65707
vt 0.49320 0.64908
vt 0.50680 0.64908
vt 0.51780 0.65707
vt 0.00000 0.72000
vt 0.10000 0.72000
vt 0.20000 0.72000
vt 0.30000 0.72000
vt 0.40000 0.72000
vt 0.50000 0.72000
vt 0.60000 0.72000
vt 0.70000 0.72000
vt 0.80000 0.72000
vt 0.90000 0.72000
vt 1.00000 0.72000
vt 0.00000 0.78000
vt 0.10000 0.78000
vt 0.20000 0.78000
vt 0.30000 0.78000
vt 0.40000 0.78000
vt 0.50000 0.78000
vt 0.60000 0.78000
vt 0.70000 0.78000
vt 0.80000 0.78000
vt 0.90000 0.78000
vt 1.00000 0.78000
vt 0.50000 0.82000
vt 0.52200 0.82000
vt 0.51780 0.83293
vt 0.50680 0.84092
vt 0.49320 0.84092
vt 0.48220 0.83293
vt 0.47800 0.82000
vt 0.48220 0.80707
vt 0.49320 0.79908
vt 0.50680 0.79908
vt 0.51780 0.80707
vt 0.50000 0.82000
vt 0.52200 0.82000
vt 0.51780 0.83293
vt 0.50680 0.84092
vt 0.49320 0.84092
vt 0.48220 0.83293
vt 0.47800 0.82000
vt 0.48220 0.80707
vt 0.49320 0.79908
vt 0.50680 0.79908
vt 0.51780 0.80707
vt 0.00000 0.86000
vt 0.10000 0.86000
vt 0.20000 0.86000
vt 0.30000 0.86000
vt 0.40000 0.86000
vt 0.50000 0.86000
vt 0.60000 0.86000
vt 0.70000 0.86000
vt 0.80000 0.86000
vt 0.90000 0.86000
vt 1.00000 0.86000
vt 0.00000 0.92000
vt 0.10000 0.92000
vt 0.20000 0.92000
vt 0.30000 0.92000
vt 0.40000 0.92000
vt 0.50000 0.92000
vt 0.60000 0.92000
vt 0.70000 0.92000
vt 0.80000 0.92000
vt 0.90000 0.92000
vt 1.00000 0.92000
vt 0.00000 0.92000
vt 0.10000 0.92000
vt 0.20000 0.92000
vt 0.30000 0.92000
vt 0.40000 0.92000
vt 0.50000 0.92000
vt 0.60000 0.92000
vt 0.70000 0.92000
vt 0.80000 0.92000
vt 0.90000 0.92000
vt 1.00000 0.92000
vt 0.00000 0.99000
vt 0.10000 0.99000
vt 0.20000 0.99000
vt 0.30000 0.99000
vt 0.40000 0.99000
vt 0.50000 0.99000
vt 0.60000 0.99000
vt 0.70000 0.99000
vt 0.80000 0.99000
vt 0.90000 0.99000
vt 1.00000 0.99000
vt 0.50000 0.95500
vt 0.52200 0.95500
vt 0.51780 0.96793
vt 0.50680 0.97592
vt 0.49320 0.97592
vt 0.48220 0.96793
vt 0.47800 0.95500
vt 0.48220 0.94207
vt 0.49320 0.93408
vt 0.50680 0.93408
vt 0.51780 0.94207
vn 0.25766 0.00000 -0.96623
vn 0.20845 0.15145 -0.96623
vn 0.07962 0.24505 -0.96623
vn -0.07962 0.24505 -0.96623
vn -0.20845 0.15145 -0.96623
vn -0.25766 0.00000 -0.96623
vn -0.20845 -0.15145 -0.96623
vn -0.07962 -0.24505 -0.96623
vn 0.07962 -0.24505 -0.96623
vn 0.20845 -0.15145 -0.96623
vn 0.91492 0.00000 -0.40364
vn 0.74018 0.53778 -0.40364
vn 0.28273 0.87014 -0.40364
vn -0.28273 0.87014 -0.40364
vn -0.74018 0.53778 -0.40364
vn -0.91492 0.00000 -0.40364
vn -0.74018 -0.53778 -0.40364
vn -0.28273 -0.87014 -0.40364
vn 0.28273 -0.87014 -0.40364
vn 0.74018 -0.53778 -0.40364
vn 0.93405 0.00000 -0.35714
vn 0.75566 0.54902 -0.35714
vn 0.28864 0.88834 -0.35714
vn -0.28864 0.88834 -0.35714
vn -0.75566 0.54902 -0.35714
vn -0.93405 0.00000 -0.35714
vn -0.75566 -0.54902 -0.35714
vn -0.28864 -0.88834 -0.35714
vn 0.28864 -0.88834 -0.35714
vn 0.75566 -0.54902 -0.35714
vn 0.97732 0.00000 -0.21175
vn 0.79067 0.57446 -0.21175
vn 0.30201 0.92949 -0.21175
vn -0.30201 0.92949 -0.21175
vn -0.79067 0.57446 -0.21175
vn -0.97732 0.00000 -0.21175
vn -0.79067 -0.57446 -0.21175
vn -0.30201 -0.92949 -0.21175
vn 0.30201 -0.92949 -0.21175
vn 0.79067 -0.57446 -0.21175
vn 0.99944 0.00000 -0.03331
vn 0.80857 0.58746 -0.03331
vn 0.30885 0.95053 -0.03331
vn -0.30885 0.95053 -0.03331
vn -0.80857 0.58746 -0.03331
vn -0.99944 0.00000 -0.03331
vn -0.80857 -0.58746 -0.03331
vn -0.30885 -0.95053 -0.03331
vn 0.30885 -0.95053 -0.03331
vn 0.80857 -0.58746 -0.03331
vn 0.99951 0.00000 -0.03123
vn 0.80862 0.58750 -0.03123
vn 0.30887 0.95059 -0.03123
vn -0.30887 0.95059 -0.03123
vn -0.80862 0.58750 -0.03123
vn -0.99951 0.00000 -0.03123
vn -0.80862 -0.58750 -0.03123
vn -0.30887 -0.95059 -0.03123
vn 0.30887 -0.95059 -0.03123
vn 0.80862 -0.58750 -0.03123
vn 0.99026 0.00000 0.13925
vn 0.80113 0.58206 0.13925
vn 0.30601 0.94179 0.13925
vn -0.30601 0.94179 0.13925
vn -0.80113 0.58206 0.13925
vn -0.99026 0.00000 0.13925
vn -0.80113 -0.58206 0.13925
vn -0.30601 -0.94179 0.13925
vn 0.30601 -0.94179 0.13925
vn 0.80113 -0.58206 0.13925
vn 0.98139 0.00000 0.19201
vn 0.79396 0.57685 0.19201
vn 0.30327 0.93336 0.19201
vn -0.30327 0.93336 0.19201
vn -0.79396 0.57685 0.19201
vn -0.98139 0.00000 0.19201
vn -0.79396 -0.57685 0.19201
vn -0.30327 -0.93336 0.19201
vn 0.30327 -0.93336 0.19201
vn 0.79396 -0.57685 0.19201
vn 0.00000 0.00000 1.00000
vn 0.00000 0.00000 1.00000
vn 0.00000 0.00000 1.00000
vn 0.00000 0.00000 1.00000
vn 0.00000 0.00000 1.00000
vn 0.00000 0.00000 1.00000
vn 0.00000 0.00000 1.00000
vn 0.00000 0.00000 1.00000
vn 0.00000 0.00000 1.00000
vn 0.00000 0.00000 1.00000
vn 0.00000 0.00000 1.00000
vn 0.00000 1.00000 0.00000
vn 0.00000 -1.00000 0.00000
vn 0.64505 0.00000 0.76414
vn 0.99589 0.00000 -0.09054
vn -0.20395 0.00000 -0.97898
vn -1.00000 0.00000 -0.00000
vn 0.00000 1.00000 0.00000
vn 0.00000 -1.00000 0.00000
vn 1.00000 0.00000 -0.00000
vn 0.20395 0.00000 -0.97898
vn -0.99589 0.00000 -0.09054
vn -0.64505 0.00000 0.76414
vn 1.00000 0.00000 0.00000
vn -1.00000 0.00000 0.00000
vn 0.00000 0.90213 -0.43146
vn 0.00000 0.00000 1.00000
vn 0.00000 -0.99831 0.05804
vn 0.00000 -0.41906 -0.90796
vn 0.99875 0.00000 -0.04994
vn 0.80801 0.58705 -0.04994
vn 0.30863 0.94987 -0.04994
vn -0.30863 0.94987 -0.04994
vn -0.80801 0.58705 -0.04994
vn -0.99875 0.00000 -0.04994
vn -0.80801 -0.58705 -0.04994
vn -0.30863 -0.94987 -0.04994
vn 0.30863 -0.94987 -0.04994
vn 0.80801 -0.58705 -0.04994
vn 0.99897 0.00000 -0.04541
vn 0.80818 0.58718 -0.04541
vn 0.30870 0.95008 -0.04541
vn -0.30870 0.95008 -0.04541
vn -0.80818 0.58718 -0.04541
vn -0.99897 0.00000 -0.04541
vn -0.80818 -0.58718 -0.04541
vn -0.30870 -0.95008 -0.04541
vn 0.30870 -0.95008 -0.04541
vn 0.80818 -0.58718 -0.04541
vn 0.00000 0.00000 -1.00000
vn 0.00000 0.00000 -1.00000
vn 0.00000 0.00000 -1.00000
vn 0.00000 0.00000 -1.00000
vn 0.00000 0.00000 -1.00000
vn 0.00000 0.00000 -1.00000
vn 0.00000 0.00000 -1.00000
vn 0.00000 0.00000 -1.00000
vn 0.00000 0.00000 -1.00000
vn 0.00000 0.00000 -1.00000
vn 0.00000 0.00000 -1.00000
vn 0.99273 0.00000 0.12033
vn 0.80314 0.58351 0.12033
vn 0.30677 0.94415 0.12033
vn -0.30677 0.94415 0.12033
vn -0.80314 0.58351 0.12033
vn -0.99273 0.00000 0.12033
vn -0.80314 -0.58351 0.12033
vn -0.30677 -0.94415 0.12033
vn 0.30677 -0.94415 0.12033
vn 0.80314 -0.58351 0.12033
vn 0.98744 0.00000 0.15799
vn 0.79886 0.58040 0.15799
vn 0.30514 0.93911 0.15799
vn -0.30514 0.93911 0.15799
vn -0.79886 0.58040 0.15799
vn -0.98744 0.00000 0.15799
vn -0.79886 -0.58040 0.15799
vn -0.30514 -0.93911 0.15799
vn 0.30514 -0.93911 0.15799
vn 0.79886 -0.58040 0.15799
vn 0.99875 0.00000 -0.04994
vn 0.80801 0.58705 -0.04994
vn 0.30863 0.94987 -0.04994
vn -0.30863 0.94987 -0.04994
vn -0.80801 0.58705 -0.04994
vn -0.99875 0.00000 -0.04994
vn -0.80801 -0.58705 -0.04994
vn -0.30863 -0.94987 -0.04994
vn 0.30863 -0.94987 -0.04994
vn 0.80801 -0.58705 -0.04994
vn 0.99897 0.00000 -0.04541
vn 0.80818 0.58718 -0.04541
vn 0.30870 0.95008 -0.04541
vn -0.30870 0.95008 -0.04541
vn -0.80818 0.58718 -0.04541
vn -0.99897 0.00000 -0.04541
vn -0.80818 -0.58718 -0.04541
vn -0.30870 -0.95008 -0.04541
vn 0.30870 -0.95008 -0.04541
vn 0.80818 -0.58718 -0.04541
vn 0.00000 0.00000 -1.00000
vn 0.00000 0.00000 -1.00000
vn 0.00000 0.00000 -1.00000
vn 0.00000 0.00000 -1.00000
vn 0.00000 0.00000 -1.00000
vn 0.00000 0.00000 -1.00000
vn 0.00000 0.00000 -1.00000
vn 0.00000 0.00000 -1.00000
vn 0.00000 0.00000 -1.00000
vn 0.00000 0.00000 -1.00000
vn 0.00000 0.00000 -1.00000
vn 0.99273 0.00000 0.12033
vn 0.80314 0.58351 0.12033
vn 0.30677 0.94415 0.12033
vn -0.30677 0.94415 0.12033
vn -0.80314 0.58351 0.12033
vn -0.99273 0.00000 0.12033
vn -0.80314 -0.58351 0.12033
vn -0.30677 -0.94415 0.12033
vn 0.30677 -0.94415 0.12033
vn 0.80314 -0.58351 0.12033
vn 0.98744 0.00000 0.15799
vn 0.79886 0.58040 0.15799
vn 0.30514 0.93911 0.15799
vn -0.30514 0.93911 0.15799
vn -0.79886 0.58040 0.15799
vn -0.98744 0.00000 0.15799
vn -0.79886 -0.58040 0.15799
vn -0.30514 -0.93911 0.15799
vn 0.30514 -0.93911 0.15799
vn 0.79886 -0.58040 0.15799
vn 0.00000 0.00000 1.00000
vn 0.00000 0.00000 1.00000
vn 0.00000 0.00000 1.00000
vn 0.00000 0.00000 1.00000
vn 0.00000 0.00000 1.00000
vn 0.00000 0.00000 1.00000
vn 0.00000 0.00000 1.00000
vn 0.00000 0.00000 1.00000
vn 0.00000 0.00000 1.00000
vn 0.00000 0.00000 1.00000
vn 0.00000 0.00000 1.00000
vn 0.00000 0.00000 1.00000
vn 0.00000 0.00000 1.00000
vn 0.00000 0.00000 1.00000
vn 0.00000 0.00000 1.00000
vn 0.00000 0.00000 1.00000
vn 0.00000 0.00000 1.00000
vn 0.00000 0.00000 1.00000
vn 0.00000 0.00000 1.00000
vn 0.00000 0.00000 1.00000
vn 0.00000 0.00000 1.00000
vn 0.00000 0.00000 1.00000
vn 0.87416 0.00000 -0.48564
vn 0.78219 0.31572 -0.53713
vn 0.37383 0.63919 -0.67208
vn -0.37383 0.63919 -0.67208
vn -0.78219 0.31572 -0.53713
vn -0.87416 0.00000 -0.48564
vn -0.78219 -0.31572 -0.53713
vn -0.37383 -0.63919 -0.67208
vn 0.37383 -0.63919 -0.67208
vn 0.78219 -0.31572 -0.53713
vn 0.96707 0.00000 -0.25449
vn 0.88294 0.37139 -0.28720
vn 0.45175 0.80494 -0.38471
vn -0.45175 0.80494 -0.38471
vn -0.88294 0.37139 -0.28720
vn -0.96707 0.00000 -0.25449
vn -0.88294 -0.37139 -0.28720
vn -0.45175 -0.80494 -0.38471
vn 0.45175 -0.80494 -0.38471
vn 0.88294 -0.37139 -0.28720
vn 0.98345 0.00000 0.18116
vn 0.90212 0.37946 0.20541
vn 0.46983 0.83715 0.28007
vn -0.46983 0.83715 0.28007
vn -0.90212 0.37946 0.20541
vn -0.98345 0.00000 0.18116
vn -0.90212 -0.37946 0.20541
vn -0.46983 -0.83715 0.28007
vn 0.46983 -0.83715 0.28007
vn 0.90212 -0.37946 0.20541
vn 0.96000 0.00000 0.28000
vn 0.87384 0.37035 0.31504
vn 0.44220 0.79389 0.41737
vn -0.44220 0.79389 0.41737
vn -0.87384 0.37035 0.31504
vn -0.96000 0.00000 0.28000
vn -0.87384 -0.37035 0.31504
vn -0.44220 -0.79389 0.41737
vn 0.44220 -0.79389 0.41737
vn 0.87384 -0.37035 0.31504
vn 0.00000 0.00000 1.00000
vn 0.00000 0.00000 1.00000
vn 0.00000 0.00000 1.00000
vn 0.00000 0.00000 1.00000
vn 0.00000 0.00000 1.00000
vn 0.00000 0.00000 1.00000
vn 0.00000 0.00000 1.00000
vn 0.00000 0.00000 1.00000
vn 0.00000 0.00000 1.00000
vn 0.00000 0.00000 1.00000
vn 0.00000 0.00000 1.00000

g hull
usemtl M_Hull
f 1/1/1 12/13/12 11/12/11
f 1/1/1 2/2/2 12/13/12
f 2/2/2 13/14/13 12/13/12
f 2/2/2 3/3/3 13/14/13
f 3/3/3 14/15/14 13/14/13
f 3/3/3 4/4/4 14/15/14
f 4/4/4 15/16/15 14/15/14
f 4/4/4 5/5/5 15/16/15
f 5/5/5 16/17/16 15/16/15
f 5/5/5 6/6/6 16/17/16
f 6/6/6 17/18/17 16/17/16
f 6/6/6 7/7/7 17/18/17
f 7/7/7 18/19/18 17/18/17
f 7/7/7 8/8/8 18/19/18
f 8/8/8 19/20/19 18/19/18
f 8/8/8 9/9/9 19/20/19
f 9/9/9 20/21/20 19/20/19
f 9/9/9 10/10/10 20/21/20
f 10/10/10 11/22/11 20/21/20
f 10/10/10 1/11/1 11/22/11
f 21/23/21 32/35/32 31/34/31
f 21/23/21 22/24/22 32/35/32
f 22/24/22 33/36/33 32/35/32
f 22/24/22 23/25/23 33/36/33
f 23/25/23 34/37/34 33/36/33
f 23/25/23 24/26/24 34/37/34
f 24/26/24 35/38/35 34/37/34
f 24/26/24 25/27/25 35/38/35
f 25/27/25 36/39/36 35/38/35
f 25/27/25 26/28/26 36/39/36
f 26/28/26 37/40/37 36/39/36
f 26/28/26 27/29/27 37/40/37
f 27/29/27 38/41/38 37/40/37
f 27/29/27 28/30/28 38/41/38
f 28/30/28 39/42/39 38/41/38
f 28/30/28 29/31/29 39/42/39
f 29/31/29 40/43/40 39/42/39
f 29/31/29 30/32/30 40/43/40
f 30/32/30 31/44/31 40/43/40
f 30/32/30 21/33/21 31/44/31
f 41/45/41 52/57/52 51/56/51
f 41/45/41 42/46/42 52/57/52
f 42/46/42 53/58/53 52/57/52
f 42/46/42 43/47/43 53/58/53
f 43/47/43 54/59/54 53/58/53
f 43/47/43 44/48/44 54/59/54
f 44/48/44 55/60/55 54/59/54
f 44/48/44 45/49/45 55/60/55
f 45/49/45 56/61/56 55/60/55
f 45/49/45 46/50/46 56/61/56
f 46/50/46 57/62/57 56/61/56
f 46/50/46 47/51/47 57/62/57
f 47/51/47 58/63/58 57/62/57
f 47/51/47 48/52/48 58/63/58
f 48/52/48 59/64/59 58/63/58
f 48/52/48 49/53/49 59/64/59
f 49/53/49 60/65/60 59/64/59
f 49/53/49 50/54/50 60/65/60
f 50/54/50 51/66/51 60/65/60
f 50/54/50 41/55/41 51/66/51
f 61/67/61 72/79/72 71/78/71
f 61/67/61 62/68/62 72/79/72
f 62/68/62 73/80/73 72/79/72
f 62/68/62 63/69/63 73/80/73
f 63/69/63 74/81/74 73/80/73
f 63/69/63 64/70/64 74/81/74
f 64/70/64 75/82/75 74/81/74
f 64/70/64 65/71/65 75/82/75
f 65/71/65 76/83/76 75/82/75
f 65/71/65 66/72/66 76/83/76
f 66/72/66 77/84/77 76/83/76
f 66/72/66 67/73/67 77/84/77
f 67/73/67 78/85/78 77/84/77
f 67/73/67 68/74/68 78/85/78
f 68/74/68 79/86/79 78/85/78
f 68/74/68 69/75/69 79/86/79
f 69/75/69 80/87/80 79/86/79
f 69/75/69 70/76/70 80/87/80
f 70/76/70 71/88/71 80/87/80
f 70/76/70 61/77/61 71/88/71
f 81/89/81 82/90/82 83/91/83
f 81/89/81 83/91/83 84/92/84
f 81/89/81 84/92/84 85/93/85
f 81/89/81 85/93/85 86/94/86
f 81/89/81 86/94/86 87/95/87
f 81/89/81 87/95/87 88/96/88
f 81/89/81 88/96/88 89/97/89
f 81/89/81 89/97/89 90/98/90
f 81/89/81 90/98/90 91/99/91
f 81/89/81 91/99/91 82/90/82

g wings
usemtl M_Hull
f 92/100/92 93/101/92 94/102/92
f 92/100/92 94/102/92 95/103/92
f 96/104/93 98/106/93 97/105/93
f 96/104/93 99/107/93 98/106/93
f 92/100/94 97/105/94 96/104/94
f 92/100/94 93/101/94 97/105/94
f 93/101/95 98/106/95 97/105/95
f 93/101/95 94/102/95 98/106/95
f 94/102/96 99/107/96 98/106/96
f 94/102/96 95/103/96 99/107/96
f 95/103/97 96/104/97 99/107/97
f 95/103/97 92/100/97 96/104/97
f 100/108/98 101/109/98 102/110/98
f 100/108/98 102/110/98 103/111/98
f 104/112/99 106/114/99 105/113/99
f 104/112/99 107/115/99 106/114/99
f 100/108/100 105/113/100 104/112/100
f 100/108/100 101/109/100 105/113/100
f 101/109/101 106/114/101 105/113/101
f 101/109/101 102/110/101 106/114/101
f 102/110/102 107/115/102 106/114/102
f 102/110/102 103/111/102 107/115/102
f 103/111/103 104/112/103 107/115/103
f 103/111/103 100/108/103 104/112/103
f 108/116/104 109/117/104 110/118/104
f 108/116/104 110/118/104 111/119/104
f 112/120/105 114/122/105 113/121/105
f 112/120/105 115/123/105 114/122/105
f 108/116/106 112/120/106 113/121/106
f 108/116/106 113/121/106 109/117/106
f 109/117/107 113/121/107 114/122/107
f 109/117/107 114/122/107 110/118/107
f 110/118/108 114/122/108 115/123/108
f 110/118/108 115/123/108 111/119/108
f 111/119/109 115/123/109 112/120/109
f 111/119/109 112/120/109 108/116/109

g engine
usemtl M_Engine
f 116/124/110 127/136/121 126/135/120
f 116/124/110 117/125/111 127/136/121
f 117/125/111 128/137/122 127/136/121
f 117/125/111 118/126/112 128/137/122
f 118/126/112 129/138/123 128/137/122
f 118/126/112 119/127/113 129/138/123
f 119/127/113 130/139/124 129/138/123
f 119/127/113 120/128/114 130/139/124
f 120/128/114 131/140/125 130/139/124
f 120/128/114 121/129/115 131/140/125
f 121/129/115 132/141/126 131/140/125
f 121/129/115 122/130/116 132/141/126
f 122/130/116 133/142/127 132/141/126
f 122/130/116 123/131/117 133/142/127
f 123/131/117 134/143/128 133/142/127
f 123/131/117 124/132/118 134/143/128
f 124/132/118 135/144/129 134/143/128
f 124/132/118 125/133/119 135/144/129
f 125/133/119 126/145/120 135/144/129
f 125/133/119 116/134/110 126/145/120
f 136/146/130 138/148/132 137/147/131
f 136/146/130 139/149/133 138/148/132
f 136/146/130 140/150/134 139/149/133
f 136/146/130 141/151/135 140/150/134
f 136/146/130 142/152/136 141/151/135
f 136/146/130 143/153/137 142/152/136
f 136/146/130 144/154/138 143/153/137
f 136/146/130 145/155/139 144/154/138
f 136/146/130 146/156/140 145/155/139
f 136/146/130 137/147/131 146/156/140
f 147/157/141 158/169/152 157/168/151
f 147/157/141 148/158/142 158/169/152
f 148/158/142 159/170/153 158/169/152
f 148/158/142 149/159/143 159/170/153
f 149/159/143 160/171/154 159/170/153
f 149/159/143 150/160/144 160/171/154
f 150/160/144 161/172/155 160/171/154
f 150/160/144 151/161/145 161/172/155
f 151/161/145 162/173/156 161/172/155
f 151/161/145 152/162/146 162/173/156
f 152/162/146 163/174/157 162/173/156
f 152/162/146 153/163/147 163/174/157
f 153/163/147 164/175/158 163/174/157
f 153/163/147 154/164/148 164/175/158
f 154/164/148 165/176/159 164/175/158
f 154/164/148 155/165/149 165/176/159
f 155/165/149 166/177/160 165/176/159
f 155/165/149 156/166/150 166/177/160
f 156/166/150 157/178/151 166/177/160
f 156/166/150 147/167/141 157/178/151
f 167/179/161 178/191/172 177/190/171
f 167/179/161 168/180/162 178/191/172
f 168/180/162 179/192/173 178/191/172
f 168/180/162 169/181/163 179/192/173
f 169/181/163 180/193/174 179/192/173
f 169/181/163 170/182/164 180/193/174
f 170/182/164 181/194/175 180/193/174
f 170/182/164 171/183/165 181/194/175
f 171/183/165 182/195/176 181/194/175
f 171/183/165 172/184/166 182/195/176
f 172/184/166 183/196/177 182/195/176
f 172/184/166 173/185/167 183/196/177
f 173/185/167 184/197/178 183/196/177
f 173/185/167 174/186/168 184/197/178
f 174/186/168 185/198/179 184/197/178
f 174/186/168 175/187/169 185/198/179
f 175/187/169 186/199/180 185/198/179
f 175/187/169 176/188/170 186/199/180
f 176/188/170 177/200/171 186/199/180
f 176/188/170 167/189/161 177/200/171
f 187/201/181 189/203/183 188/202/182
f 187/201/181 190/204/184 189/203/183
f 187/201/181 191/205/185 190/204/184
f 187/201/181 192/206/186 191/205/185
f 187/201/181 193/207/187 192/206/186
f 187/201/181 194/208/188 193/207/187
f 187/201/181 195/209/189 194/208/188
f 187/201/181 196/210/190 195/209/189
f 187/201/181 197/211/191 196/210/190
f 187/201/181 188/202/182 197/211/191
f 198/212/192 209/224/203 208/223/202
f 198/212/192 199/213/193 209/224/203
f 199/213/193 210/225/204 209/224/203
f 199/213/193 200/214/194 210/225/204
f 200/214/194 211/226/205 210/225/204
f 200/214/194 201/215/195 211/226/205
f 201/215/195 212/227/206 211/226/205
f 201/215/195 202/216/196 212/227/206
f 202/216/196 213/228/207 212/227/206
f 202/216/196 203/217/197 213/228/207
f 203/217/197 214/229/208 213/228/207
f 203/217/197 204/218/198 214/229/208
f 204/218/198 215/230/209 214/229/208
f 204/218/198 205/219/199 215/230/209
f 205/219/199 216/231/210 215/230/209
f 205/219/199 206/220/200 216/231/210
f 206/220/200 217/232/211 216/231/210
f 206/220/200 207/221/201 217/232/211
f 207/221/201 208/233/202 217/232/211
f 207/221/201 198/222/192 208/233/202

g thruster
usemtl M_Thruster
f 218/234/212 219/235/213 220/236/214
f 218/234/212 220/236/214 221/237/215
f 218/234/212 221/237/215 222/238/216
f 218/234/212 222/238/216 223/239/217
f 218/234/212 223/239/217 224/240/218
f 218/234/212 224/240/218 225/241/219
f 218/234/212 225/241/219 226/242/220
f 218/234/212 226/242/220 227/243/221
f 218/234/212 227/243/221 228/244/222
f 218/234/212 228/244/222 219/235/213
f 229/245/223 230/246/224 231/247/225
f 229/245/223 231/247/225 232/248/226
f 229/245/223 232/248/226 233/249/227
f 229/245/223 233/249/227 234/250/228
f 229/245/223 234/250/228 235/251/229
f 229/245/223 235/251/229 236/252/230
f 229/245/223 236/252/230 237/253/231
f 229/245/223 237/253/231 238/254/232
f 229/245/223 238/254/232 239/255/233
f 229/245/223 239/255/233 230/246/224

g glass
usemtl M_Glass
f 240/256/234 251/268/245 250/267/244
f 240/256/234 241/257/235 251/268/245
f 241/257/235 252/269/246 251/268/245
f 241/257/235 242/258/236 252/269/246
f 242/258/236 253/270/247 252/269/246
f 242/258/236 243/259/237 253/270/247
f 243/259/237 254/271/248 253/270/247
f 243/259/237 244/260/238 254/271/248
f 244/260/238 255/272/249 254/271/248
f 244/260/238 245/261/239 255/272/249
f 245/261/239 256/273/250 255/272/249
f 245/261/239 246/262/240 256/273/250
f 246/262/240 257/274/251 256/273/250
f 246/262/240 247/263/241 257/274/251
f 247/263/241 258/275/252 257/274/251
f 247/263/241 248/264/242 258/275/252
f 248/264/242 259/276/253 258/275/252
f 248/264/242 249/265/243 259/276/253
f 249/265/243 250/277/244 259/276/253
f 249/265/243 240/266/234 250/277/244
f 260/278/254 271/290/265 270/289/264
f 260/278/254 261/279/255 271/290/265
f 261/279/255 272/291/266 271/290/265
f 261/279/255 262/280/256 272/291/266
f 262/280/256 273/292/267 272/291/266
f 262/280/256 263/281/257 273/292/267
f 263/281/257 274/293/268 273/292/267
f 263/281/257 264/282/258 274/293/268
f 264/282/258 275/294/269 274/293/268
f 264/282/258 265/283/259 275/294/269
f 265/283/259 276/295/270 275/294/269
f 265/283/259 266/284/260 276/295/270
f 266/284/260 277/296/271 276/295/270
f 266/284/260 267/285/261 277/296/271
f 267/285/261 278/297/272 277/296/271
f 267/285/261 268/286/262 278/297/272
f 268/286/262 279/298/273 278/297/272
f 268/286/262 269/287/263 279/298/273
f 269/287/263 270/299/264 279/298/273
f 269/287/263 260/288/254 270/299/264
f 280/300/274 281/301/275 282/302/276
f 280/300/274 282/302/276 283/303/277
f 280/300/274 283/303/277 284/304/278
f 280/300/274 284/304/278 285/305/279
f 280/300/274 285/305/279 286/306/280
f 280/300/274 286/306/280 287/307/281
f 280/300/274 287/307/281 288/308/282
f 280/300/274 288/308/282 289/309/283
f 280/300/274 289/309/283 290/310/284
f 280/300/274 290/310/284 281/301/275
