# sphere_12x6.obj — sphere UV 12x6, rayon 1.0 (niveau de LOD, gen_sphere_lod.py)
# main droite, Y up, avant = -Z
mtllib planet.mtl

v 0.000000 1.000000 0.000000
v 0.000000 1.000000 0.000000
v 0.000000 1.000000 0.000000
v 0.000000 1.000000 0.000000
v -0.000000 1.000000 0.000000
v -0.000000 1.000000 0.000000
v -0.000000 1.000000 0.000000
v -0.000000 1.000000 -0.000000
v -0.000000 1.000000 -0.000000
v -0.000000 1.000000 -0.000000
v 0.000000 1.000000 -0.000000
v 0.000000 1.000000 -0.000000
v 0.000000 1.000000 -0.000000
v 0.500000 0.866025 0.000000
v 0.433013 0.866025 0.250000
v 0.250000 0.866025 0.433013
v 0.000000 0.866025 0.500000
v -0.250000 0.866025 0.433013
v -0.433013 0.866025 0.250000
v -0.500000 0.866025 0.000000
v -0.433013 0.866025 -0.250000
v -0.250000 0.866025 -0.433013
v -0.000000 0.866025 -0.500000
v 0.250000 0.866025 -0.433013
v 0.433013 0.866025 -0.250000
v 0.500000 0.866025 -0.000000
v 0.866025 0.500000 0.000000
v 0.750000 0.500000 0.433013
v 0.433013 0.500000 0.750000
v 0.000000 0.500000 0.866025
v -0.433013 0.500000 0.750000
v -0.750000 0.500000 0.433013
v -0.866025 0.500000 0.000000
v -0.750000 0.500000 -0.433013
v -0.433013 0.500000 -0.750000
v -0.000000 0.500000 -0.866025
v 0.433013 0.500000 -0.750000
v 0.750000 0.500000 -0.433013
v 0.866025 0.500000 -0.000000
v 1.000000 0.000000 0.000000
v 0.866025 0.000000 0.500000
v 0.500000 0.000000 0.866025
v 0.000000 0.000000 1.000000
v -0.500000 0.000000 0.866025
v -0.866025 0.000000 0.500000
v -1.000000 0.000000 0.000000
v -0.866025 0.000000 -0.500000
v -0.500000 0.000000 -0.866025
v -0.000000 0.000000 -1.000000
v 0.500000 0.000000 -0.866025
v 0.866025 0.000000 -0.500000
v 1.000000 0.000000 -0.000000
v 0.866025 -0.500000 0.000000
v 0.750000 -0.500000 0.433013
v 0.433013 -0.500000 0.750000
v 0.000000 -0.500000 0.866025
v -0.433013 -0.500000 0.750000
v -0.750000 -0.500000 0.433013
v -0.866025 -0.500000 0.000000
v -0.750000 -0.500000 -0.433013
v -0.433013 -0.500000 -0.750000
v -0.000000 -0.500000 -0.866025
v 0.433013 -0.500000 -0.750000
v 0.750000 -0.500000 -0.433013
v 0.866025 -0.500000 -0.000000
v 0.500000 -0.866025 0.000000
v 0.433013 -0.866025 0.250000
v 0.250000 -0.866025 0.433013
v 0.000000 -0.866025 0.500000
v -0.250000 -0.866025 0.433013
v -0.433013 -0.866025 0.250000
v -0.500000 -0.866025 0.000000
v -0.433013 -0.866025 -0.250000
v -0.250000 -0.866025 -0.433013
v -0.000000 -0.866025 -0.500000
v 0.250000 -0.866025 -0.433013
v 0.433013 -0.866025 -0.250000
v 0.500000 -0.866025 -0.000000
v 0.000000 -1.000000 0.000000
v 0.000000 -1.000000 0.000000
v 0.000000 -1.000000 0.000000
v 0.000000 -1.000000 0.000000
v -0.000000 -1.000000 0.000000
v -0.000000 -1.000000 0.000000
v -0.000000 -1.000000 0.000000
v -0.000000 -1.000000 -0.000000
v -0.000000 -1.000000 -0.000000
v -0.000000 -1.000000 -0.000000
v 0.000000 -1.000000 -0.000000
v 0.000000 -1.000000 -0.000000
v 0.000000 -1.000000 -0.000000
vt 0.000000 1.000000
vt 0.083333 1.000000
vt 0.166667 1.000000
vt 0.250000 1.000000
vt 0.333333 1.000000
vt 0.416667 1.000000
vt 0.500000 1.000000
vt 0.583333 1.000000
vt 0.666667 1.000000
vt 0.750000 1.000000
vt 0.833333 1.000000
vt 0.916667 1.000000
vt 1.000000 1.000000
vt 0.000000 0.833333
vt 0.083333 0.833333
vt 0.166667 0.833333
vt 0.250000 0.833333
vt 0.333333 0.833333
vt 0.416667 0.833333
vt 0.500000 0.833333
vt 0.583333 0.833333
vt 0.666667 0.833333
vt 0.750000 0.833333
vt 0.833333 0.833333
vt 0.916667 0.833333
vt 1.000000 0.833333
vt 0.000000 0.666667
vt 0.083333 0.666667
vt 0.166667 0.666667
vt 0.250000 0.666667
vt 0.333333 0.666667
vt 0.416667 0.666667
vt 0.500000 0.666667
vt 0.583333 0.666667
vt 0.666667 0.666667
vt 0.750000 0.666667
vt 0.833333 0.666667
vt 0.916667 0.666667
vt 1.000000 0.666667
vt 0.000000 0.500000
vt 0.083333 0.500000
vt 0.166667 0.500000
vt 0.250000 0.500000
vt 0.333333 0.500000
vt 0.416667 0.500000
vt 0.500000 0.500000
vt 0.583333 0.500000
vt 0.666667 0.500000
vt 0.750000 0.500000
vt 0.833333 0.500000
vt 0.916667 0.500000
vt 1.000000 0.500000
vt 0.000000 0.333333
vt 0.083333 0.333333
vt 0.166667 0.333333
vt 0.250000 0.333333
vt 0.333333 0.333333
vt 0.416667 0.333333
vt 0.500000 0.333333
vt 0.583333 0.333333
vt 0.666667 0.333333
vt 0.750000 0.333333
vt 0.833333 0.333333
vt 0.916667 0.333333
vt 1.000000 0.333333
vt 0.000000 0.166667
vt 0.083333 0.166667
vt 0.166667 0.166667
vt 0.250000 0.166667
vt 0.333333 0.166667
vt 0.416667 0.166667
vt 0.500000 0.166667
vt 0.583333 0.166667
vt 0.666667 0.166667
vt 0.750000 0.166667
vt 0.833333 0.166667
vt 0.916667 0.166667
vt 1.000000 0.166667
vt 0.000000 0.000000
vt 0.083333 0.000000
vt 0.166667 0.000000
vt 0.250000 0.000000
vt 0.333333 0.000000
vt 0.416667 0.000000
vt 0.500000 0.000000
vt 0.583333 0.000000
vt 0.666667 0.000000
vt 0.750000 0.000000
vt 0.833333 0.000000
vt 0.916667 0.000000
vt 1.000000 0.000000
vn 0.000000 1.000000 0.000000
vn 0.000000 1.000000 0.000000
vn 0.000000 1.000000 0.000000
vn 0.000000 1.000000 0.000000
vn -0.000000 1.000000 0.000000
vn -0.000000 1.000000 0.000000
vn -0.000000 1.000000 0.000000
vn -0.000000 1.000000 -0.000000
vn -0.000000 1.000000 -0.000000
vn -0.000000 1.000000 -0.000000
vn 0.000000 1.000000 -0.000000
vn 0.000000 1.000000 -0.000000
vn 0.000000 1.000000 -0.000000
vn 0.500000 0.866025 0.000000
vn 0.433013 0.866025 0.250000
vn 0.250000 0.866025 0.433013
vn 0.000000 0.866025 0.500000
vn -0.250000 0.866025 0.433013
vn -0.433013 0.866025 0.250000
vn -0.500000 0.866025 0.000000
vn -0.433013 0.866025 -0.250000
vn -0.250000 0.866025 -0.433013
vn -0.000000 0.866025 -0.500000
vn 0.250000 0.866025 -0.433013
vn 0.433013 0.866025 -0.250000
vn 0.500000 0.866025 -0.000000
vn 0.866025 0.500000 0.000000
vn 0.750000 0.500000 0.433013
vn 0.433013 0.500000 0.750000
vn 0.000000 0.500000 0.866025
vn -0.433013 0.500000 0.750000
vn -0.750000 0.500000 0.433013
vn -0.866025 0.500000 0.000000
vn -0.750000 0.500000 -0.433013
vn -0.433013 0.500000 -0.750000
vn -0.000000 0.500000 -0.866025
vn 0.433013 0.500000 -0.750000
vn 0.750000 0.500000 -0.433013
vn 0.866025 0.500000 -0.000000
vn 1.000000 0.000000 0.000000
vn 0.866025 0.000000 0.500000
vn 0.500000 0.000000 0.866025
vn 0.000000 0.000000 1.000000
vn -0.500000 0.000000 0.866025
vn -0.866025 0.000000 0.500000
vn -1.000000 0.000000 0.000000
vn -0.866025 0.000000 -0.500000
vn -0.500000 0.000000 -0.866025
vn -0.000000 0.000000 -1.000000
vn 0.500000 0.000000 -0.866025
vn 0.866025 0.000000 -0.500000
vn 1.000000 0.000000 -0.000000
vn 0.866025 -0.500000 0.000000
vn 0.750000 -0.500000 0.433013
vn 0.433013 -0.500000 0.750000
vn 0.000000 -0.500000 0.866025
vn -0.433013 -0.500000 0.750000
vn -0.750000 -0.500000 0.433013
vn -0.866025 -0.500000 0.000000
vn -0.750000 -0.500000 -0.433013
vn -0.433013 -0.500000 -0.750000
vn -0.000000 -0.500000 -0.866025
vn 0.433013 -0.500000 -0.750000
vn 0.750000 -0.500000 -0.433013
vn 0.866025 -0.500000 -0.000000
vn 0.500000 -0.866025 0.000000
vn 0.433013 -0.866025 0.250000
vn 0.250000 -0.866025 0.433013
vn 0.000000 -0.866025 0.500000
vn -0.250000 -0.866025 0.433013
vn -0.433013 -0.866025 0.250000
vn -0.500000 -0.866025 0.000000
vn -0.433013 -0.866025 -0.250000
vn -0.250000 -0.866025 -0.433013
vn -0.000000 -0.866025 -0.500000
vn 0.250000 -0.866025 -0.433013
vn 0.433013 -0.866025 -0.250000
vn 0.500000 -0.866025 -0.000000
vn 0.000000 -1.000000 0.000000
vn 0.000000 -1.000000 0.000000
vn 0.000000 -1.000000 0.000000
vn 0.000000 -1.000000 0.000000
vn -0.000000 -1.000000 0.000000
vn -0.000000 -1.000000 0.000000
vn -0.000000 -1.000000 0.000000
vn -0.000000 -1.000000 -0.000000
vn -0.000000 -1.000000 -0.000000
vn -0.000000 -1.000000 -0.000000
vn 0.000000 -1.000000 -0.000000
vn 0.000000 -1.000000 -0.000000
vn 0.000000 -1.000000 -0.000000

usemtl M_Planet
f 1/1/1 15/15/15 14/14/14
f 2/2/2 16/16/16 15/15/15
f 3/3/3 17/17/17 16/16/16
f 4/4/4 18/18/18 17/17/17
f 5/5/5 19/19/19 18/18/18
f 6/6/6 20/20/20 19/19/19
f 7/7/7 21/21/21 20/20/20
f 8/8/8 22/22/22 21/21/21
f 9/9/9 23/23/23 22/22/22
f 10/10/10 24/24/24 23/23/23
f 11/11/11 25/25/25 24/24/24
f 12/12/12 26/26/26 25/25/25
f 14/14/14 28/28/28 27/27/27
f 14/14/14 15/15/15 28/28/28
f 15/15/15 29/29/29 28/28/28
f 15/15/15 16/16/16 29/29/29
f 16/16/16 30/30/30 29/29/29
f 16/16/16 17/17/17 30/30/30
f 17/17/17 31/31/31 30/30/30
f 17/17/17 18/18/18 31/31/31
f 18/18/18 32/32/32 31/31/31
f 18/18/18 19/19/19 32/32/32
f 19/19/19 33/33/33 32/32/32
f 19/19/19 20/20/20 33/33/33
f 20/20/20 34/34/34 33/33/33
f 20/20/20 21/21/21 34/34/34
f 21/21/21 35/35/35 34/34/34
f 21/21/21 22/22/22 35/35/35
f 22/22/22 36/36/36 35/35/35
f 22/22/22 23/23/23 36/36/36
f 23/23/23 37/37/37 36/36/36
f 23/23/23 24/24/24 37/37/37
f 24/24/24 38/38/38 37/37/37
f 24/24/24 25/25/25 38/38/38
f 25/25/25 39/39/39 38/38/38
f 25/25/25 26/26/26 39/39/39
f 27/27/27 41/41/41 40/40/40
f 27/27/27 28/28/28 41/41/41
f 28/28/28 42/42/42 41/41/41
f 28/28/28 29/29/29 42/42/42
f 29/29/29 43/43/43 42/42/42
f 29/29/29 30/30/30 43/43/43
f 30/30/30 44/44/44 43/43/43
f 30/30/30 31/31/31 44/44/44
f 31/31/31 45/45/45 44/44/44
f 31/31/31 32/32/32 45/45/45
f 32/32/32 46/46/46 45/45/45
f 32/32/32 33/33/33 46/46/46
f 33/33/33 47/47/47 46/46/46
f 33/33/33 34/34/34 47/47/47
f 34/34/34 48/48/48 47/47/47
f 34/34/34 35/35/35 48/48/48
f 35/35/35 49/49/49 48/48/48
f 35/35/35 36/36/36 49/49/49
f 36/36/36 50/50/50 49/49/49
f 36/36/36 37/37/37 50/50/50
f 37/37/37 51/51/51 50/50/50
f 37/37/37 38/38/38 51/51/51
f 38/38/38 52/52/52 51/51/51
f 38/38/38 39/39/39 52/52/52
f 40/40/40 54/54/54 53/53/53
f 40/40/40 41/41/41 54/54/54
f 41/41/41 55/55/55 54/54/54
f 41/41/41 42/42/42 55/55/55
f 42/42/42 56/56/56 55/55/55
f 42/42/42 43/43/43 56/56/56
f 43/43/43 57/57/57 56/56/56
f 43/43/43 44/44/44 57/57/57
f 44/44/44 58/58/58 57/57/57
f 44/44/44 45/45/45 58/58/58
f 45/45/45 59/59/59 58/58/58
f 45/45/45 46/46/46 59/59/59
f 46/46/46 60/60/60 59/59/59
f 46/46/46 47/47/47 60/60/60
f 47/47/47 61/61/61 60/60/60
f 47/47/47 48/48/48 61/61/61
f 48/48/48 62/62/62 61/61/61
f 48/48/48 49/49/49 62/62/62
f 49/49/49 63/63/63 62/62/62
f 49/49/49 50/50/50 63/63/63
f 50/50/50 64/64/64 63/63/63
f 50/50/50 51/51/51 64/64/64
f 51/51/51 65/65/65 64/64/64
f 51/51/51 52/52/52 65/65/65
f 53/53/53 67/67/67 66/66/66
f 53/53/53 54/54/54 67/67/67
f 54/54/54 68/68/68 67/67/67
f 54/54/54 55/55/55 68/68/68
f 55/55/55 69/69/69 68/68/68
f 55/55/55 56/56/56 69/69/69
f 56/56/56 70/70/70 69/69/69
f 56/56/56 57/57/57 70/70/70
f 57/57/57 71/71/71 70/70/70
f 57/57/57 58/58/58 71/71/71
f 58/58/58 72/72/72 71/71/71
f 58/58/58 59/59/59 72/72/72
f 59/59/59 73/73/73 72/72/72
f 59/59/59 60/60/60 73/73/73
f 60/60/60 74/74/74 73/73/73
f 60/60/60 61/61/61 74/74/74
f 61/61/61 75/75/75 74/74/74
f 61/61/61 62/62/62 75/75/75
f 62/62/62 76/76/76 75/75/75
f 62/62/62 63/63/63 76/76/76
f 63/63/63 77/77/77 76/76/76
f 63/63/63 64/64/64 77/77/77
f 64/64/64 78/78/78 77/77/77
f 64/64/64 65/65/65 78/78/78
f 66/66/66 67/67/67 80/80/80
f 67/67/67 68/68/68 81/81/81
f 68/68/68 69/69/69 82/82/82
f 69/69/69 70/70/70 83/83/83
f 70/70/70 71/71/71 84/84/84
f 71/71/71 72/72/72 85/85/85
f 72/72/72 73/73/73 86/86/86
f 73/73/73 74/74/74 87/87/87
f 74/74/74 75/75/75 88/88/88
f 75/75/75 76/76/76 89/89/89
f 76/76/76 77/77/77 90/90/90
f 77/77/77 78/78/78 91/91/91
