# sphere_6x4.obj — sphere UV 6x4, rayon 1.0 (niveau de LOD, gen_sphere_lod.py)
# main droite, Y up, avant = -Z
mtllib planet.mtl

v 0.000000 1.000000 0.000000
v 0.000000 1.000000 0.000000
v -0.000000 1.000000 0.000000
v -0.000000 1.000000 0.000000
v -0.000000 1.000000 -0.000000
v 0.000000 1.000000 -0.000000
v 0.000000 1.000000 -0.000000
v 0.707107 0.707107 0.000000
v 0.353553 0.707107 0.612372
v -0.353553 0.707107 0.612372
v -0.707107 0.707107 0.000000
v -0.353553 0.707107 -0.612372
v 0.353553 0.707107 -0.612372
v 0.707107 0.707107 -0.000000
v 1.000000 0.000000 0.000000
v 0.500000 0.000000 0.866025
v -0.500000 0.000000 0.866025
v -1.000000 0.000000 0.000000
v -0.500000 0.000000 -0.866025
v 0.500000 0.000000 -0.866025
v 1.000000 0.000000 -0.000000
v 0.707107 -0.707107 0.000000
v 0.353553 -0.707107 0.612372
v -0.353553 -0.707107 0.612372
v -0.707107 -0.707107 0.000000
v -0.353553 -0.707107 -0.612372
v 0.353553 -0.707107 -0.612372
v 0.707107 -0.707107 -0.000000
v 0.000000 -1.000000 0.000000
v 0.000000 -1.000000 0.000000
v -0.000000 -1.000000 0.000000
v -0.000000 -1.000000 0.000000
v -0.000000 -1.000000 -0.000000
v 0.000000 -1.000000 -0.000000
v 0.000000 -1.000000 -0.000000
vt 0.000000 1.000000
vt 0.166667 1.000000
vt 0.333333 1.000000
vt 0.500000 1.000000
vt 0.666667 1.000000
vt 0.833333 1.000000
vt 1.000000 1.000000
vt 0.000000 0.750000
vt 0.166667 0.750000
vt 0.333333 0.750000
vt 0.500000 0.750000
vt 0.666667 0.750000
vt 0.833333 0.750000
vt 1.000000 0.750000
vt 0.000000 0.500000
vt 0.166667 0.500000
vt 0.333333 0.500000
vt 0.500000 0.500000
vt 0.666667 0.500000
vt 0.833333 0.500000
vt 1.000000 0.500000
vt 0.000000 0.250000
vt 0.166667 0.250000
vt 0.333333 0.250000
vt 0.500000 0.250000
vt 0.666667 0.250000
vt 0.833333 0.250000
vt 1.000000 0.250000
vt 0.000000 0.000000
vt 0.166667 0.000000
vt 0.333333 0.000000
vt 0.500000 0.000000
vt 0.666667 0.000000
vt 0.833333 0.000000
vt 1.000000 0.000000
vn 0.000000 1.000000 0.000000
vn 0.000000 1.000000 0.000000
vn -0.000000 1.000000 0.000000
vn -0.000000 1.000000 0.000000
vn -0.000000 1.000000 -0.000000
vn 0.000000 1.000000 -0.000000
vn 0.000000 1.000000 -0.000000
vn 0.707107 0.707107 0.000000
vn 0.353553 0.707107 0.612372
vn -0.353553 0.707107 0.612372
vn -0.707107 0.707107 0.000000
vn -0.353553 0.707107 -0.612372
vn 0.353553 0.707107 -0.612372
vn 0.707107 0.707107 -0.000000
vn 1.000000 0.000000 0.000000
vn 0.500000 0.000000 0.866025
vn -0.500000 0.000000 0.866025
vn -1.000000 0.000000 0.000000
vn -0.500000 0.000000 -0.866025
vn 0.500000 0.000000 -0.866025
vn 1.000000 0.000000 -0.000000
vn 0.707107 -0.707107 0.000000
vn 0.353553 -0.707107 0.612372
vn -0.353553 -0.707107 0.612372
vn -0.707107 -0.707107 0.000000
vn -0.353553 -0.707107 -0.612372
vn 0.353553 -0.707107 -0.612372
vn 0.707107 -0.707107 -0.000000
vn 0.000000 -1.000000 0.000000
vn 0.000000 -1.000000 0.000000
vn -0.000000 -1.000000 0.000000
vn -0.000000 -1.000000 0.000000
vn -0.000000 -1.000000 -0.000000
vn 0.000000 -1.000000 -0.000000
vn 0.000000 -1.000000 -0.000000

usemtl M_Planet
f 1/1/1 9/9/9 8/8/8
f 2/2/2 10/10/10 9/9/9
f 3/3/3 11/11/11 10/10/10
f 4/4/4 12/12/12 11/11/11
f 5/5/5 13/13/13 12/12/12
f 6/6/6 14/14/14 13/13/13
f 8/8/8 16/16/16 15/15/15
f 8/8/8 9/9/9 16/16/16
f 9/9/9 17/17/17 16/16/16
f 9/9/9 10/10/10 17/17/17
f 10/10/10 18/18/18 17/17/17
f 10/10/10 11/11/11 18/18/18
f 11/11/11 19/19/19 18/18/18
f 11/11/11 12/12/12 19/19/19
f 12/12/12 20/20/20 19/19/19
f 12/12/12 13/13/13 20/20/20
f 13/13/13 21/21/21 20/20/20
f 13/13/13 14/14/14 21/21/21
f 15/15/15 23/23/23 22/22/22
f 15/15/15 16/16/16 23/23/23
f 16/16/16 24/24/24 23/23/23
f 16/16/16 17/17/17 24/24/24
f 17/17/17 25/25/25 24/24/24
f 17/17/17 18/18/18 25/25/25
f 18/18/18 26/26/26 25/25/25
f 18/18/18 19/19/19 26/26/26
f 19/19/19 27/27/27 26/26/26
f 19/19/19 20/20/20 27/27/27
f 20/20/20 28/28/28 27/27/27
f 20/20/20 21/21/21 28/28/28
f 22/22/22 23/23/23 30/30/30
f 23/23/23 24/24/24 31/31/31
f 24/24/24 25/25/25 32/32/32
f 25/25/25 26/26/26 33/33/33
f 26/26/26 27/27/27 34/34/34
f 27/27/27 28/28/28 35/35/35
