# 3ds Max Wavefront OBJ Exporter v0.99 - (c)2007 guruware
# File Created: 11.09.2022 22:39:50

mtllib sphere 10 faces.mtl

#
# object Sphere001
#

v  0.00000000 0.00000000 20.00000000
v  -0.00000051 11.75570488 16.18033981
v  -6.90982914 9.51056480 16.18033981
v  -11.18033886 3.63271308 16.18033981
v  -11.18033981 -3.63271236 16.18033981
v  -6.90983200 -9.51056290 16.18033981
v  0.00000014 -11.75570488 16.18033981
v  6.90983248 -9.51056290 16.18033981
v  11.18034172 -3.63270664 16.18033981
v  11.18033695 3.63272142 16.18033981
v  6.90982008 9.51057243 16.18033981
v  -0.00000083 19.02113152 6.18033934
v  -11.18033886 15.38841915 6.18033934
v  -18.09016991 5.87785339 6.18033934
v  -18.09017181 -5.87785244 6.18033934
v  -11.18034363 -15.38841534 6.18033934
v  0.00000023 -19.02113152 6.18033934
v  11.18034458 -15.38841534 6.18033934
v  18.09017372 -5.87784338 6.18033934
v  18.09016609 5.87786722 6.18033934
v  11.18032455 15.38843060 6.18033934
v  -0.00000083 19.02112961 -6.18034077
v  -11.18033791 15.38841724 -6.18034077
v  -18.09016800 5.87785292 -6.18034077
v  -18.09016991 -5.87785196 -6.18034077
v  -11.18034267 -15.38841343 -6.18034077
v  0.00000023 -19.02112961 -6.18034077
v  11.18034363 -15.38841343 -6.18034077
v  18.09017181 -5.87784290 -6.18034077
v  18.09016609 5.87786674 -6.18034077
v  11.18032360 15.38842869 -6.18034077
v  -0.00000051 11.75570393 -16.18034172
v  -6.90982866 9.51056480 -16.18034172
v  -11.18033886 3.63271284 -16.18034172
v  -11.18033886 -3.63271213 -16.18034172
v  -6.90983152 -9.51056194 -16.18034172
v  0.00000014 -11.75570393 -16.18034172
v  6.90983200 -9.51056194 -16.18034172
v  11.18034077 -3.63270640 -16.18034172
v  11.18033600 3.63272119 -16.18034172
v  6.90981960 9.51057148 -16.18034172
v  0.00000000 0.00000000 -20.00000000
# 42 vertices

vn 0.00000003 -0.00000001 1.00000000
vn -0.00000021 0.62522566 0.78044403
vn -0.36749846 0.50581819 0.78044397
vn -0.59462494 0.19320543 0.78044397
vn -0.59462494 -0.19320531 0.78044403
vn -0.36749852 -0.50581813 0.78044403
vn 0.00000000 -0.62522572 0.78044397
vn 0.36749861 -0.50581813 0.78044397
vn 0.59462506 -0.19320509 0.78044397
vn 0.59462482 0.19320585 0.78044397
vn 0.36749801 0.50581849 0.78044403
vn -0.00000028 0.95627129 0.29248112
vn -0.56208217 0.77363974 0.29248112
vn -0.90946805 0.29550415 0.29248112
vn -0.90946805 -0.29550400 0.29248115
vn -0.56208223 -0.77363968 0.29248112
vn 0.00000001 -0.95627129 0.29248115
vn 0.56208241 -0.77363956 0.29248109
vn 0.90946817 -0.29550365 0.29248115
vn 0.90946782 0.29550484 0.29248115
vn 0.56208158 0.77364016 0.29248112
vn -0.00000026 0.95627129 -0.29248121
vn -0.56208223 0.77363968 -0.29248121
vn -0.90946800 0.29550415 -0.29248121
vn -0.90946805 -0.29550400 -0.29248124
vn -0.56208229 -0.77363962 -0.29248121
vn -0.00000002 -0.95627129 -0.29248121
vn 0.56208235 -0.77363956 -0.29248121
vn 0.90946811 -0.29550368 -0.29248124
vn 0.90946782 0.29550481 -0.29248118
vn 0.56208158 0.77364010 -0.29248124
vn -0.00000016 0.62522566 -0.78044403
vn -0.36749846 0.50581825 -0.78044397
vn -0.59462500 0.19320539 -0.78044397
vn -0.59462494 -0.19320536 -0.78044403
vn -0.36749849 -0.50581813 -0.78044403
vn -0.00000003 -0.62522572 -0.78044397
vn 0.36749861 -0.50581813 -0.78044397
vn 0.59462512 -0.19320506 -0.78044397
vn 0.59462482 0.19320582 -0.78044403
vn 0.36749804 0.50581843 -0.78044403
vn -0.00000001 -0.00000004 -1.00000000
# 42 vertex normals

vt 0.00000000 1.00000000 0.00000000
vt 0.00000000 0.80000001 0.00000000
vt 0.10000000 0.80000001 0.00000000
vt 0.10000000 1.00000000 0.00000000
vt 0.20000000 0.80000001 0.00000000
vt 0.20000000 1.00000000 0.00000000
vt 0.30000001 0.80000001 0.00000000
vt 0.30000001 1.00000000 0.00000000
vt 0.40000001 0.80000001 0.00000000
vt 0.40000001 1.00000000 0.00000000
vt 0.50000000 0.80000001 0.00000000
vt 0.50000000 1.00000000 0.00000000
vt 0.60000002 0.80000001 0.00000000
vt 0.60000002 1.00000000 0.00000000
vt 0.69999999 0.80000001 0.00000000
vt 0.69999999 1.00000000 0.00000000
vt 0.80000001 0.80000001 0.00000000
vt 0.80000001 1.00000000 0.00000000
vt 0.90000004 0.80000001 0.00000000
vt 0.90000004 1.00000000 0.00000000
vt 1.00000012 0.80000001 0.00000000
vt 0.00000000 0.60000002 0.00000000
vt 0.10000000 0.60000002 0.00000000
vt 0.20000000 0.60000002 0.00000000
vt 0.30000001 0.60000002 0.00000000
vt 0.40000001 0.60000002 0.00000000
vt 0.50000000 0.60000002 0.00000000
vt 0.60000002 0.60000002 0.00000000
vt 0.69999999 0.60000002 0.00000000
vt 0.80000001 0.60000002 0.00000000
vt 0.90000004 0.60000002 0.00000000
vt 1.00000012 0.60000002 0.00000000
vt 0.00000000 0.39999998 0.00000000
vt 0.10000000 0.39999998 0.00000000
vt 0.20000000 0.39999998 0.00000000
vt 0.30000001 0.39999998 0.00000000
vt 0.40000001 0.39999998 0.00000000
vt 0.50000000 0.39999998 0.00000000
vt 0.60000002 0.39999998 0.00000000
vt 0.69999999 0.39999998 0.00000000
vt 0.80000001 0.39999998 0.00000000
vt 0.90000004 0.39999998 0.00000000
vt 1.00000012 0.39999998 0.00000000
vt 0.00000000 0.19999999 0.00000000
vt 0.10000000 0.19999999 0.00000000
vt 0.20000000 0.19999999 0.00000000
vt 0.30000001 0.19999999 0.00000000
vt 0.40000001 0.19999999 0.00000000
vt 0.50000000 0.19999999 0.00000000
vt 0.60000002 0.19999999 0.00000000
vt 0.69999999 0.19999999 0.00000000
vt 0.80000001 0.19999999 0.00000000
vt 0.90000004 0.19999999 0.00000000
vt 1.00000012 0.19999999 0.00000000
vt 0.00000000 0.00000000 0.00000000
vt 0.10000000 0.00000000 0.00000000
vt 0.20000000 0.00000000 0.00000000
vt 0.30000001 0.00000000 0.00000000
vt 0.40000001 0.00000000 0.00000000
vt 0.50000000 0.00000000 0.00000000
vt 0.60000002 0.00000000 0.00000000
vt 0.69999999 0.00000000 0.00000000
vt 0.80000001 0.00000000 0.00000000
vt 0.90000004 0.00000000 0.00000000
# 64 texture coords

o Sphere001
g Sphere001
usemtl wire_135059008
s 1
f 1/1/1 2/2/2 3/3/3 
f 1/4/1 3/3/3 4/5/4 
f 1/6/1 4/5/4 5/7/5 
f 1/8/1 5/7/5 6/9/6 
f 1/10/1 6/9/6 7/11/7 
f 1/12/1 7/11/7 8/13/8 
f 1/14/1 8/13/8 9/15/9 
f 1/16/1 9/15/9 10/17/10 
f 1/18/1 10/17/10 11/19/11 
f 1/20/1 11/19/11 2/21/2 
f 2/2/2 12/22/12 13/23/13 
f 2/2/2 13/23/13 3/3/3 
f 3/3/3 13/23/13 14/24/14 
f 3/3/3 14/24/14 4/5/4 
f 4/5/4 14/24/14 15/25/15 
f 4/5/4 15/25/15 5/7/5 
f 5/7/5 15/25/15 16/26/16 
f 5/7/5 16/26/16 6/9/6 
f 6/9/6 16/26/16 17/27/17 
f 6/9/6 17/27/17 7/11/7 
f 7/11/7 17/27/17 18/28/18 
f 7/11/7 18/28/18 8/13/8 
f 8/13/8 18/28/18 19/29/19 
f 8/13/8 19/29/19 9/15/9 
f 9/15/9 19/29/19 20/30/20 
f 9/15/9 20/30/20 10/17/10 
f 10/17/10 20/30/20 21/31/21 
f 10/17/10 21/31/21 11/19/11 
f 11/19/11 21/31/21 12/32/12 
f 11/19/11 12/32/12 2/21/2 
f 12/22/12 22/33/22 23/34/23 
f 12/22/12 23/34/23 13/23/13 
f 13/23/13 23/34/23 24/35/24 
f 13/23/13 24/35/24 14/24/14 
f 14/24/14 24/35/24 25/36/25 
f 14/24/14 25/36/25 15/25/15 
f 15/25/15 25/36/25 26/37/26 
f 15/25/15 26/37/26 16/26/16 
f 16/26/16 26/37/26 27/38/27 
f 16/26/16 27/38/27 17/27/17 
f 17/27/17 27/38/27 28/39/28 
f 17/27/17 28/39/28 18/28/18 
f 18/28/18 28/39/28 29/40/29 
f 18/28/18 29/40/29 19/29/19 
f 19/29/19 29/40/29 30/41/30 
f 19/29/19 30/41/30 20/30/20 
f 20/30/20 30/41/30 31/42/31 
f 20/30/20 31/42/31 21/31/21 
f 21/31/21 31/42/31 22/43/22 
f 21/31/21 22/43/22 12/32/12 
f 22/33/22 32/44/32 33/45/33 
f 22/33/22 33/45/33 23/34/23 
f 23/34/23 33/45/33 34/46/34 
f 23/34/23 34/46/34 24/35/24 
f 24/35/24 34/46/34 35/47/35 
f 24/35/24 35/47/35 25/36/25 
f 25/36/25 35/47/35 36/48/36 
f 25/36/25 36/48/36 26/37/26 
f 26/37/26 36/48/36 37/49/37 
f 26/37/26 37/49/37 27/38/27 
f 27/38/27 37/49/37 38/50/38 
f 27/38/27 38/50/38 28/39/28 
f 28/39/28 38/50/38 39/51/39 
f 28/39/28 39/51/39 29/40/29 
f 29/40/29 39/51/39 40/52/40 
f 29/40/29 40/52/40 30/41/30 
f 30/41/30 40/52/40 41/53/41 
f 30/41/30 41/53/41 31/42/31 
f 31/42/31 41/53/41 32/54/32 
f 31/42/31 32/54/32 22/43/22 
f 42/55/42 33/45/33 32/44/32 
f 42/56/42 34/46/34 33/45/33 
f 42/57/42 35/47/35 34/46/34 
f 42/58/42 36/48/36 35/47/35 
f 42/59/42 37/49/37 36/48/36 
f 42/60/42 38/50/38 37/49/37 
f 42/61/42 39/51/39 38/50/38 
f 42/62/42 40/52/40 39/51/39 
f 42/63/42 41/53/41 40/52/40 
f 42/64/42 32/54/32 41/53/41 
# 80 faces

